<?xml version="1.0" encoding="UTF-8"?>
<svg width="119px" height="119px" viewBox="0 0 119 119" version="1.1" xmlns="http://www.w3.org/2000/svg" xmlns:xlink="http://www.w3.org/1999/xlink">
    <title>trigger fail</title>
    <g id="Destinations" stroke="none" stroke-width="1" fill="none" fill-rule="evenodd">
        <g id="runpanther---settings---add-new-destination-trigger-alert-fail" transform="translate(-860.000000, -233.000000)">
            <g id="Group-6" transform="translate(400.000000, 94.000000)">
                <g id="somethingwentwrong" transform="translate(460.000000, 139.000000)">
                    <circle id="Oval" fill="#D64242" cx="59.4" cy="59.4" r="59.4"></circle>
                    <g id="Group-4" transform="translate(24.000000, 23.000000)" fill="#FFFFFF">
                        <path d="M32.94064,14 L38.3656,14 C38.884352,14 39.30624,14.518752 39.30624,14.94064 L39.30624,43.84064 C39.30624,44.359392 38.884368,44.78128 38.3656,44.78128 L32.94064,44.78128 C32.421888,44.78128 32,44.262528 32,43.84064 L32,14.94064 C32,14.421888 32.421872,14 32.94064,14 Z" id="Fill-1"></path>
                        <path d="M38.197715,51.297715 C42.132115,55.232115 36.232115,61.132115 32.297715,57.197715 C28.363315,53.263315 34.263315,47.363315 38.197715,51.297715" id="Fill-2"></path>
                        <path d="M36,0 C26.4528,0 17.2968,3.79376 10.544,10.544 C3.794,17.29712 0,26.4536 0,36 C0,45.5464 3.79376,54.7032 10.544,61.456 C17.29712,68.206 26.4536,72 36,72 C45.5464,72 54.7032,68.20624 61.456,61.456 C68.206,54.70288 72,45.5464 72,36 C71.990624,26.456 68.19376,17.3064 61.444,10.556 C54.69424,3.8056 45.544,0.0088 36,0 Z M36,66.4 C27.9376,66.4 20.2064,63.19688 14.5032,57.4968 C8.8032,51.79368 5.6,44.0624 5.6,36 C5.6,27.9376 8.80312,20.2064 14.5032,14.5032 C20.20632,8.8032 27.9376,5.6 36,5.6 C44.0624,5.6 51.7936,8.80312 57.4968,14.5032 C63.1968,20.20632 66.4,27.9376 66.4,36 C66.390624,44.0592 63.1844,51.7872 57.484,57.484 C51.78712,63.184 44.0592,66.3904 36,66.4 Z" id="Fill-3"></path>
                    </g>
                </g>
            </g>
        </g>
    </g>
</svg>