<?xml version="1.0" encoding="UTF-8"?>
<svg width="119px" height="119px" viewBox="0 0 119 119" version="1.1" xmlns="http://www.w3.org/2000/svg" xmlns:xlink="http://www.w3.org/1999/xlink">
    <title>testing alert</title>
    <g id="Destinations" stroke="none" stroke-width="1" fill="none" fill-rule="evenodd">
        <g id="runpanther---settings---add-new-destination-trigger-alert-success" transform="translate(-860.000000, -233.000000)">
            <g id="Group-6" transform="translate(400.000000, 94.000000)">
                <g id="testdestination" transform="translate(460.000000, 139.000000)">
                    <circle id="Oval" fill="#894195" cx="59.4" cy="59.4" r="59.4"></circle>
                    <path d="M67,81.0004 C67,84.8676 63.8672,88.0004 60,88.0004 C56.1328,88.0004 53,84.8676 53,81.0004 L67,81.0004 Z M59.9998,32 C62.4842,32 64.4998,34.0078 64.4998,36.5 L64.4998,36.5 L64.4998,38.5664 C72.2654,40.5664 77.9998,47.6137 77.9998,56.0004 L77.9998,56.0004 L77.9998,68.0004 C77.9998,69.10978 78.8943,70.0004 79.9959,70.0004 C82.199,70.0004 83.9998,71.7895 83.9998,74.0004 L83.9998,74.0004 L83.9998,77.0043 C83.9998,77.54727 83.55059,78.00039 82.9959,78.00039 L82.9959,78.00039 L37.0039,78.00039 C36.44531,78.00039 36,77.55508 36,77.0043 L36,77.0043 L36,74.0004 C36,71.7973 37.793,70.0004 40.0039,70.0004 C41.10156,70.0004 42,69.1059 42,68.0004 L42,68.0004 L42,56.0004 C42,47.6094 47.7383,40.5625 55.5,38.5664 L55.5,38.5664 L55.4998,36.5 C55.4998,34.0156 57.5193,32 59.9998,32 Z" id="Combined-Shape" fill="#F6F6F6"></path>
                </g>
            </g>
        </g>
    </g>
</svg>