<?xml version="1.0" encoding="UTF-8"?>
<svg width="120px" height="120px" viewBox="0 0 120 120" version="1.1" xmlns="http://www.w3.org/2000/svg" xmlns:xlink="http://www.w3.org/1999/xlink">
    <title>633AB4DC-31FC-46DF-879E-49439C8D2015@1.00x</title>
    <g id="Sources" stroke="none" stroke-width="1" fill="none" fill-rule="evenodd">
        <g id="Log-Analysis---Add-New-Source---Step-3-Almost-there" transform="translate(-860.000000, -307.000000)">
            <g id="Step-3" transform="translate(400.000000, 94.000000)">
                <g id="waiting-illustrtation" transform="translate(460.000000, 213.000000)">
                    <circle id="Oval" fill="#EB522A" cx="59.8991597" cy="59.8991597" r="59.8991597"></circle>
                    <path d="M61.0281008,59.5013285 C70.1630252,58.2297778 77.302521,47.9438669 77.302521,35.4201574 L77.302521,33 L41,33 L41,35.4201574 C41,47.9438669 48.1401008,58.2295358 57.2744202,59.5013285 C57.6383892,59.5627763 57.9409345,59.8652959 57.9409345,60.2268917 C57.9409345,60.5908591 57.6384134,60.893403 57.2744202,60.9524548 C48.1394958,62.2240055 41,72.5099165 41,85.0336241 L41,87.4537815 L77.302521,87.4537815 L77.302521,85.0336241 C77.302521,72.5099165 70.1624202,62.2242476 61.0281008,60.9524548 C60.6641318,60.8933667 60.3615866,60.590847 60.3615866,60.2268917 C60.3615866,59.8629363 60.6641076,59.5603803 61.0281008,59.5013285 Z M74.8823529,35.4201574 C74.8823529,40.0784763 73.7927933,44.4340336 71.9776672,48.0055809 C71.7365943,48.4900843 71.2521008,48.7311441 70.7675832,48.7311441 L47.5351798,48.7311441 C46.9915859,48.7311441 46.5661445,48.4286244 46.3250958,48.0055809 C44.5099697,44.4368168 43.4204101,40.1400693 43.4204101,35.4201574 L74.8823529,35.4201574 Z M58.5462185,63.2519674 L58.5462185,76.8036387 C58.5462185,77.2881421 58.1822494,77.7726697 57.6386555,77.8317216 C55.2799597,78.1342412 48.8038319,79.2828479 43.4818824,83.1565519 C44.146037,72.2658436 50.5602689,63.6748899 58.5462185,63.2519674 Z M74.8206387,83.1565519 C69.4957849,79.3443199 62.960605,78.1342412 60.6638655,77.8317216 C60.17936,77.7702738 59.7563025,77.3472182 59.7563025,76.8036387 L59.7563025,63.2519674 C67.7422521,63.675023 74.1569076,72.2658436 74.8206387,83.1565519 Z" id="Fill-1" fill="#F6F6F6"></path>
                </g>
            </g>
        </g>
    </g>
</svg>