<?xml version="1.0" encoding="UTF-8"?>
<svg width="28px" height="27px" viewBox="0 0 28 27" version="1.1" xmlns="http://www.w3.org/2000/svg" xmlns:xlink="http://www.w3.org/1999/xlink">
    <title>logo panther emblem</title>
    <g id="logo-panther-emblem" stroke="none" stroke-width="1" fill="none" fill-rule="evenodd">
        <g id="Group-7" transform="translate(0.000000, 0.650685)">
            <polygon id="Fill-1" fill="#0784C6" points="14 25.3493151 18.5 24.3493151 21.239629 18.7052612 26.3100056 15.0861583 25.459303 8.30136365 28 3.84931507 27.5 1.34931507 25.5 0.349315068 22 2.84931507 14 0.349315068"></polygon>
            <polygon id="Fill-2" fill="#20A5D9" points="6.10618623 2.40233893 2.5 0.349315068 0.5 1.34931507 0.5 3.84931507 2.54037494 8.30136365 2 14.8493151 7 18.3493151 9.5 24.3493151 14 24.8493151 14 0.349315068"></polygon>
            <path d="M14,25.3493151 L14,24.7812386 L17.7567807,24.2204013 C17.895008,24.1994461 18.0259197,24.1529636 18.1452804,24.081335 C18.3370275,23.9670339 18.4844957,23.7982493 18.5722835,23.5944123 L20.7180802,18.5895485 C20.7839211,18.4360041 20.8905756,18.3026528 21.0268778,18.2047348 L21.0318833,18.2009248 L25.7266077,14.9696329 C25.8051547,14.9155304 25.8471235,14.8233276 25.8355725,14.7288387 L24.9884968,8.56153276 C24.9607743,8.36150585 24.9977376,8.16185994 25.0951513,7.98393124 L27.4092081,3.77231702 C27.4215292,3.74983781 27.4273047,3.72431056 27.4257645,3.69878332 L27.3044787,1.72670849 C27.3025535,1.6962282 27.2925426,1.66650991 27.2756011,1.64098267 L27.2220813,1.5598289 C27.2039847,1.53277764 27.1789575,1.51106043 27.1489248,1.49696329 L25.6669274,0.80734671 C25.5629681,0.758959248 25.4428374,0.766198317 25.3454237,0.826396892 L22.2235647,2.75084627 C22.0033251,2.88686457 21.734186,2.9219169 21.4858388,2.84685919 L14,0.592079654 L14,0 L21.6529438,2.303548 C21.7430418,2.33059926 21.8400705,2.31802614 21.9201576,2.26887667 L25.0416315,0.344427289 C25.3053801,0.181738735 25.6303491,0.162688554 25.9114242,0.293372802 L27.3934217,0.982989387 C27.5193279,1.04166395 27.6263675,1.13348582 27.7022192,1.24892993 L27.7561241,1.3300837 C27.8277405,1.43828873 27.8693242,1.56363893 27.8774099,1.69203716 L27.9986957,3.66411199 C28.0067815,3.79632025 27.9771338,3.9273855 27.9136031,4.04359161 L25.5995464,8.25558684 C25.5606579,8.32607251 25.5460266,8.40532127 25.5571926,8.48495103 L26.4050383,14.657591 C26.4420016,14.9654419 26.3072396,15.2614817 26.054272,15.4356004 L21.3630129,18.6649872 C21.3114182,18.7027066 21.2713747,18.7529991 21.2463474,18.8112926 L19.1005507,23.8161564 C18.9654036,24.1308654 18.7378483,24.3907099 18.4421419,24.5674956 C18.2573254,24.6779867 18.0555674,24.7499963 17.8422583,24.7820007 L14,25.3493151 Z" id="Fill-3" fill="#2572B5"></path>
            <path d="M14,25.3493151 L10.157745,24.7820007 C9.94443614,24.7499963 9.74267829,24.6779867 9.55786194,24.5674956 C9.26215577,24.3907099 9.03460064,24.1308654 8.89906864,23.8161564 L6.75365881,18.8112926 C6.72863159,18.7529991 6.68858805,18.7027066 6.63699348,18.6649872 L1.94573838,15.4359814 C1.69277099,15.2614817 1.55800907,14.9654419 1.59420227,14.662163 L2.44281736,8.48495103 C2.45398335,8.40532127 2.43935206,8.32607251 2.40046361,8.25558684 L0.086408855,4.04397262 C0.0224931994,3.9273855 -0.00676938988,3.79632025 0.00131632559,3.66411199 L0.122602058,1.69203716 C0.130687773,1.56325793 0.172656487,1.43828873 0.24388779,1.3300837 L0.297792559,1.24892993 C0.373644271,1.13348582 0.480683742,1.04166395 0.606974917,0.982989387 L2.08858602,0.293372802 C2.36966089,0.162688554 2.69462964,0.181738735 2.95799295,0.344427289 L6.07984918,2.26887667 C6.15993627,2.31802614 6.25734989,2.33059926 6.34706283,2.303548 L14,0 L14,0.592079654 L6.51416762,2.84685919 C6.26582064,2.9219169 5.99668183,2.88686457 5.77644234,2.75084627 L2.6545861,0.826396892 C2.55717248,0.766198317 2.43665682,0.759340251 2.33269762,0.80734671 L0.851086518,1.49696329 C0.82105386,1.51106043 0.796026646,1.53277764 0.777930044,1.5598289 L0.724410309,1.64098267 C0.70746881,1.66650991 0.697457924,1.6962282 0.695532753,1.72670849 L0.574247021,3.69878332 C0.572706885,3.72431056 0.578482396,3.74983781 0.590803486,3.77231702 L2.90485825,7.98393124 C3.00227187,8.16185994 3.03923514,8.36150585 3.01151268,8.56153276 L2.16366766,14.7337917 C2.15288671,14.8233276 2.19485542,14.9155304 2.27340237,14.9696329 L6.97312823,18.2047348 C7.10943029,18.3026528 7.21608472,18.435623 7.28192555,18.5895485 L9.42772042,23.5944123 C9.51550819,23.7982493 9.66297624,23.9670339 9.8547232,24.081335 C9.97408377,24.1529636 10.1049954,24.1994461 10.2432226,24.2204013 L14,24.7812386 L14,25.3493151 Z" id="Fill-5" fill="#3A92CD"></path>
        </g>
    </g>
</svg>