<?xml version="1.0" encoding="UTF-8"?>
<svg  version="1.1" viewBox="750 -40 1000 1000" xmlns="http://www.w3.org/2000/svg">
 <g transform="matrix(.06755 0 0 -.06755 709.6 990.34)">
  <path d="m7770 14494c-632-57-1120-215-1621-526-222-136-388-268-592-468-331-322-579-679-761-1092-429-976-386-2119 115-3050 187-346 373-593 657-870l131-128-1004-1870-120 6c-255 14-516-41-746-157-570-286-898-902-815-1529 25-183 68-324 147-483 194-384 550-673 963-778 686-175 1398 148 1715 778 213 425 213 921 0 1346-53 105-140 236-203 304-42 47-47 57-39 76 6 12 322 602 702 1311 381 709 691 1290 689 1291s-113 80-248 175c-298 211-363 263-506 405-721 717-932 1800-533 2743 248 588 733 1073 1321 1321 325 138 614 196 978 196 223 0 310-9 515-50 783-158 1470-722 1784-1467 138-325 196-615 196-978-1-284-25-462-101-718-20-67-35-124-33-126 6-6 923-306 935-306s72 187 109 340c66 279 90 492 90 815-1 343-29 568-110 880-135 517-386 995-736 1400-84 98-299 311-394 392-510 430-1132 703-1810 794-144 19-559 33-675 23zm-3109-9022c143-50 258-164 311-310 16-44 21-80 21-162s-5-118-21-162c-53-145-165-257-311-311-79-29-243-29-322 0-146 54-258 166-311 311-30 80-30 243-1 323 63 171 199 290 378 329 59 13 192 4 256-18z"/>
  <path d="m7800 12485c-818-112-1394-863-1286-1675 25-183 68-324 147-483 266-528 825-855 1411-823 65 3 123 7 129 8 6 2 372-574 813-1279s804-1285 808-1288c3-4 134 62 290 146 318 171 426 222 596 278 582 194 1204 170 1770-70 588-248 1073-733 1321-1321 138-325 196-614 196-978 0-223-9-310-50-515-158-783-722-1470-1467-1784-325-138-614-196-978-196-218 0-311 9-500 46-474 94-952 355-1294 708l-78 81-62-57c-33-31-197-185-364-342l-303-286 153-150c219-215 397-353 653-508 417-252 873-407 1390-474 196-25 614-25 810 0 721 93 1349 369 1880 828 98 84 311 299 392 394 330 391 577 870 708 1370 82 313 109 536 109 885s-27 572-109 885c-131 500-378 979-708 1370-81 95-294 310-392 394-531 459-1159 735-1880 828-169 21-590 24-760 5-280-32-520-85-760-168-88-30-169-57-181-60-18-5-84 96-562 862l-541 867 42 47c58 65 145 197 196 297 213 425 213 921 0 1346-287 570-909 898-1539 812zm361-1013c143-50 258-164 311-310 16-44 21-80 21-162s-5-118-21-162c-53-145-165-257-311-311-43-15-80-20-161-20s-118 5-161 20c-146 54-258 166-311 311-30 80-30 243-1 323 63 171 199 290 378 329 59 13 192 4 256-18z"/>
  <path d="m3865 8443c-11-2-72-16-135-30-471-103-968-336-1360-637-201-155-449-397-597-583-425-533-670-1131-755-1838-16-134-16-582 0-720 86-728 356-1355 828-1915 98-117 338-349 461-447 915-729 2117-959 3222-616 675 209 1261 608 1708 1163 358 445 625 1045 713 1603l13 77h2125l13-37c20-63 98-213 157-301 197-297 519-524 866-613 686-175 1398 148 1715 778 213 425 213 921 0 1346-194 384-550 673-963 778-690 176-1400-149-1718-786-25-49-51-107-57-127l-13-38h-3067l-5-42c-3-24-10-189-15-368-11-335-22-445-67-649-112-502-402-989-789-1320-496-426-1102-642-1730-617-468 18-916 161-1291 411-174 117-248 177-394 324-632 636-874 1544-641 2413 130 487 422 945 803 1260 127 105 194 152 342 241 222 131 497 240 731 288 61 12 114 26 118 30 12 10-174 979-187 978-6-1-20-3-31-6zm7796-2971c143-50 258-164 311-310 16-44 21-80 21-162s-5-118-21-162c-53-145-165-257-311-311-79-29-243-29-322 0-146 54-258 166-311 311-30 80-30 243-1 323 63 171 199 290 378 329 59 13 192 4 256-18z"/>
 </g>
</svg>
