<?xml version="1.0" encoding="UTF-8"?>
<svg width="36px" height="36px" viewBox="0 0 36 36" version="1.1" xmlns="http://www.w3.org/2000/svg" xmlns:xlink="http://www.w3.org/1999/xlink">
    <title>icon_duo</title>
    <g id="Library" stroke="none" stroke-width="1" fill="none" fill-rule="evenodd">
        <g id="Iconography" transform="translate(-679.000000, -480.000000)">
            <g id="icon_duo" transform="translate(679.000000, 480.000000)">
                <rect id="Rectangle-Copy-3" x="0" y="0" width="36" height="36"></rect>
                <g id="duomobile">
                    <g id="duo-security" transform="translate(4.500000, 4.000000)">
                        <g id="g10" transform="translate(13.500000, 13.986506) scale(-1, 1) rotate(-180.000000) translate(-13.500000, -13.986506) translate(0.000000, 0.486506)" fill-rule="nonzero">
                            <g id="g12">
                                <path d="M26.9865061,13.4931181 C26.9865061,6.0409024 20.9454148,0 13.4934959,0 C6.04098336,0 0,6.0409024 0,13.4931181 C0,20.9453068 6.04098336,26.9865061 13.4934959,26.9865061 C20.9454148,26.9865061 26.9865061,20.9453068 26.9865061,13.4931181" id="path14" fill="#59B734"></path>
                                <path d="M7.09197284,10.6580237 L4.03102838,10.6580237 L4.03102838,13.5421796 L10.1472771,13.5421796 C10.0559278,11.9336759 8.72290233,10.6580237 7.09197284,10.6580237" id="path16" fill="#FFFFFF"></path>
                                <path d="M7.09197284,10.6580237 L4.03102838,10.6580237 L4.03102838,13.5421796 L10.1472771,13.5421796 C10.0559278,11.9336759 8.72290233,10.6580237 7.09197284,10.6580237" id="path18" fill="#E6F3D8"></path>
                                <path d="M7.09197284,16.7796967 L4.03102838,16.7796967 L4.03102838,13.8955139 L10.1472771,13.8955139 C10.0559278,15.5034509 8.72290233,16.7796967 7.09197284,16.7796967" id="path20" fill="#FFFFFF"></path>
                                <path d="M10.4350342,16.7796967 L10.4350342,13.7189682 C10.4350342,12.0878228 11.7113071,10.7546354 13.3195139,10.663367 L13.3195139,16.7796967 L10.4350342,16.7796967" id="path22" fill="#FFFFFF"></path>
                                <path d="M19.8996877,10.6580237 C18.269055,10.6580237 16.9362185,11.9336759 16.8444104,13.5421796 L22.9554777,13.5421796 C22.8637236,11.9336759 21.5307251,10.6580237 19.8996877,10.6580237" id="path24" fill="#FFFFFF"></path>
                                <path d="M19.8996877,10.6580237 C18.269055,10.6580237 16.9362185,11.9336759 16.8444104,13.5421796 L22.9554777,13.5421796 C22.8637236,11.9336759 21.5307251,10.6580237 19.8996877,10.6580237" id="path26" fill="#E6F3D8"></path>
                                <path d="M19.8996877,16.7796967 C18.269055,16.7796967 16.9362455,15.5034509 16.8444104,13.8955139 L22.9554777,13.8955139 C22.8637236,15.5034509 21.5307251,16.7796967 19.8996877,16.7796967" id="path28" fill="#FFFFFF"></path>
                                <path d="M16.5509861,10.663367 L13.6720926,10.663367 L13.6720926,16.7797237 L16.5566263,16.7797237 L16.5566263,13.7189682 C16.5566263,13.6595169 16.5544404,13.6010371 16.5509861,13.5421796 L16.5509861,10.663367" id="path30" fill="#FFFFFF"></path>
                                <path d="M16.5509861,10.663367 L13.6720926,10.663367 L13.6720926,16.7797237 L16.5566263,16.7797237 L16.5566263,13.7189682 C16.5566263,13.6595169 16.5544404,13.6010371 16.5509861,13.5421796 L16.5509861,10.663367" id="path32" fill="#E6F3D8"></path>
                            </g>
                        </g>
                    </g>
                </g>
            </g>
        </g>
    </g>
</svg>