<?xml version="1.0" encoding="UTF-8"?>
<svg width="36px" height="36px" viewBox="0 0 36 36" version="1.1" xmlns="http://www.w3.org/2000/svg" xmlns:xlink="http://www.w3.org/1999/xlink">
    <title>icon_eventbridge</title>
    <defs>
        <polygon id="path-1" points="0 0.0123985075 12.4587672 0.0123985075 12.4587672 16.7149209 0 16.7149209"></polygon>
    </defs>
    <g id="Library" stroke="none" stroke-width="1" fill="none" fill-rule="evenodd">
        <g id="Iconography" transform="translate(-679.000000, -309.000000)">
            <g id="icon_eventbridge" transform="translate(679.000000, 309.000000)">
                <rect id="Rectangle" x="0" y="0" width="36" height="36"></rect>
                <g id="amazon-eventbridge">
                    <g id="Group-8" transform="translate(4.500000, 4.500000)">
                        <path d="M20.2750522,25.8046119 C19.1304403,25.8046119 18.1994104,24.8734478 18.1994104,23.7289701 C18.1994104,22.5843582 19.1304403,21.6533284 20.2750522,21.6533284 C21.4196642,21.6533284 22.3508284,22.5843582 22.3508284,23.7289701 C22.3508284,24.8734478 21.4196642,25.8046119 20.2750522,25.8046119 L20.2750522,25.8046119 Z M8.93075373,13.598194 L11.1948582,9.67647761 L15.7233358,9.67647761 L17.9875746,13.598194 L15.7233358,17.5199104 L11.1948582,17.5199104 L8.93075373,13.598194 Z M4.69779851,3.28473134 C4.69779851,2.14025373 5.62896269,1.20895522 6.7734403,1.20895522 C7.91805224,1.20895522 8.84921642,2.14025373 8.84921642,3.28473134 C8.84921642,4.42934328 7.91805224,5.36037313 6.7734403,5.36037313 C5.62896269,5.36037313 4.69779851,4.42934328 4.69779851,3.28473134 L4.69779851,3.28473134 Z M20.2750522,20.4443731 C19.6259776,20.4443731 19.0208284,20.6343134 18.5107836,20.9604627 L16.752694,18.1547463 L19.3835149,13.598194 L16.421306,8.46752239 L11.1804851,8.46752239 L9.26899254,5.41692537 C9.76036567,4.84253731 10.0581716,4.09795522 10.0581716,3.28473134 C10.0581716,1.47358209 8.58472388,0 6.7734403,0 C4.96229104,0 3.48884328,1.47358209 3.48884328,3.28473134 C3.48884328,5.0958806 4.96229104,6.56932836 6.7734403,6.56932836 C7.33278358,6.56932836 7.8596194,6.42855224 8.32117164,6.18098507 L10.1405149,9.08462687 L7.5346791,13.598194 L10.4968881,18.7288657 L15.6857239,18.7288657 L17.6140075,21.806597 C17.222306,22.3475373 16.9904552,23.0115224 16.9904552,23.7289701 C16.9904552,25.5401194 18.463903,27.0135672 20.2750522,27.0135672 C22.0862015,27.0135672 23.5597836,25.5401194 23.5597836,23.7289701 C23.5597836,21.9176866 22.0862015,20.4443731 20.2750522,20.4443731 L20.2750522,20.4443731 Z" id="Fill-1" fill="#E88F37"></path>
                        <g id="Group-5" transform="translate(0.000000, 9.013567)">
                            <mask id="mask-2" fill="white">
                                <use xlink:href="#path-1"></use>
                            </mask>
                            <g id="Clip-4"></g>
                            <path d="M1.88578209,10.430906 C1.88578209,9.28629403 2.81694627,8.35512985 3.96142388,8.35512985 C5.10603582,8.35512985 6.0372,9.28629403 6.0372,10.430906 C6.0372,11.5755179 5.10603582,12.5065478 3.96142388,12.5065478 C2.81694627,12.5065478 1.88578209,11.5755179 1.88578209,10.430906 L1.88578209,10.430906 Z M7.72866269,15.4773537 L6.1073194,12.914503 C6.8040806,12.3117716 7.24615522,11.4223836 7.24615522,10.430906 C7.24615522,8.61975672 5.77270746,7.14617463 3.96142388,7.14617463 C3.59779701,7.14617463 3.2481403,7.20648806 2.92091642,7.3161 L1.39682687,4.66808507 L3.7521403,0.620502985 L2.70733433,0.0123985075 L-5.37313433e-05,4.66472687 L1.86482687,7.90459254 C1.13945373,8.50759254 0.676826866,9.41618955 0.676826866,10.430906 C0.676826866,12.2420552 2.15027463,13.715503 3.96142388,13.715503 C4.34775224,13.715503 4.71836418,13.6479358 5.06291642,13.524891 L7.08093134,16.7149209 L12.4587672,16.486294 L12.4074537,15.2784134 L7.72866269,15.4773537 Z" id="Fill-3" fill="#E88F37" mask="url(#mask-2)"></path>
                        </g>
                        <path d="M22.9336791,9.79080448 C21.7901418,9.80316269 20.8451418,8.88865522 20.829291,7.74417761 C20.8215,7.18980448 21.0301119,6.6655209 21.416709,6.26804328 C21.803306,5.87056567 22.3214104,5.64744627 22.8757836,5.63978955 C23.4372761,5.63213284 23.9545746,5.84074478 24.3520522,6.22720746 C24.7495299,6.61380448 24.9726493,7.13204328 24.9801716,7.68628209 C24.9961567,8.8307597 24.0781567,9.7748194 22.9336791,9.79080448 L22.9336791,9.79080448 Z M25.0364552,10.2120582 C25.7532313,9.59898358 26.2033657,8.68420746 26.1891269,7.66949104 C26.176903,6.79219254 25.8238881,5.97225224 25.1948284,5.3605209 C24.565903,4.74878955 23.7336045,4.41834179 22.8589925,4.43096866 C22.4775,4.43620746 22.1067537,4.50619254 21.7592463,4.63514776 L19.6981119,1.47507313 L14.323903,1.77878955 L14.3921418,2.98572985 L19.067709,2.7216403 L20.7235746,5.26031194 C20.6642015,5.31323731 20.6060373,5.3676403 20.5500224,5.42513284 C19.938291,6.05419254 19.6081119,6.88367015 19.6203358,7.76096866 C19.6454552,9.55653582 21.1139328,10.999894 22.9041269,10.999894 C22.9195746,10.999894 22.9350224,10.9997597 22.9504701,10.9996254 C23.314097,10.9945209 23.6629478,10.9293716 23.988694,10.8151925 L25.5494552,13.4418493 L23.2505597,17.5218045 L24.3039627,18.1152672 L26.9462015,13.4257299 L25.0364552,10.2120582 Z" id="Fill-6" fill="#E88F37"></path>
                    </g>
                </g>
            </g>
        </g>
    </g>
</svg>