<svg xmlns="http://www.w3.org/2000/svg" fill="none" viewBox="0 0 42 39">
  <g>
    <path fill="#F6F6F6" fill-rule="evenodd"
      d="M8.653.258c-.593.067-.576.521-.555 1.366.023.842-.143 1.6-.855 2.018-.135.07-.27.139-.402.215-.008.004-.013.004-.02.007-.738.384-1.469.119-2.17-.353-.702-.472-1.08-.73-1.453-.264l-.718.897-.016.02c-.6.751-.348.437-.718.898-.372.465-.039.778.575 1.359.607.575 1.022 1.224.827 2.015a6.95 6.95 0 00-.13.445c-.004.011-.01.014-.015.029-.25.793-.956 1.12-1.784 1.284-.83.163-1.278.248-1.213.84l.127 1.141.003.028c.106.952.06.553.126 1.141.065.593.522.576 1.367.555.84-.023 1.597.142 2.017.853.068.135.14.272.216.402.004.01.002.015.007.024.382.736.117 1.469-.353 2.169-.47.703-.728 1.079-.266 1.453.464.368.15.118.897.718.007.003.008.007.015.012a.013.013 0 01.006.006c.75.6.437.347.9.716.466.371.78.04 1.36-.574.576-.61 1.23-1.029 2.021-.824.142.046.287.088.432.125.014.007.02.013.034.018.79.25 1.12.956 1.283 1.784.166.829.25 1.277.841 1.213.588-.067.19-.021 1.143-.125l.016-.002c.003 0 .007 0 .01-.002.954-.107.553-.065 1.14-.128.592-.067.58-.523.554-1.367-.024-.845.143-1.607.86-2.022.133-.069.263-.135.39-.21.01-.005.017-.003.026-.008.738-.383 1.47-.116 2.17.355.703.47 1.08.726 1.452.263.368-.462.12-.15.718-.897l.011-.013c.002-.003.002-.005.005-.006.6-.75.347-.438.718-.899.371-.465.04-.776-.574-1.359-.613-.578-1.032-1.23-.824-2.028.044-.14.085-.28.124-.422.006-.014.014-.02.02-.039.248-.79.955-1.12 1.783-1.282.83-.165 1.278-.25 1.213-.84-.067-.588-.023-.19-.126-1.143v-.016l-.003-.01-.128-1.143c-.066-.592-.52-.576-1.368-.553-.844.022-1.606-.144-2.02-.861-.003 0-.003 0-.003-.002a10.348 10.348 0 00-.208-.39c-.005-.009-.004-.015-.01-.025-.38-.737-.117-1.468.355-2.17.47-.703.727-1.08.263-1.452-.462-.37-.15-.117-.896-.718-.009-.006-.012-.01-.018-.013l-.004-.003c-.748-.6-.436-.348-.898-.716-.466-.373-.777-.04-1.36.574-.575.612-1.228 1.03-2.024.822a12.844 12.844 0 00-.427-.123c-.014-.007-.02-.013-.035-.018-.793-.251-1.122-.956-1.285-1.784-.162-.83-.249-1.277-.84-1.213-.594.065-.175.02-1.167.13-.95.101-.552.057-1.14.122h.001zM15.1 10.543a4.124 4.124 0 11-8.198.908 4.124 4.124 0 018.198-.908z"
      clip-rule="evenodd" />
    <animateTransform attributeType="xml" attributeName="transform" type="rotate" from="360 11 11" to="0 11 11" dur="8s"
      additive="sum" repeatCount="indefinite" />
  </g>

  <g>
    <path fill="#F6F6F6" fill-rule="evenodd"
      d="M22.3 15.64c-.599.302-.402.776-.046 1.655.358.875.482 1.737-.103 2.458-.116.126-.228.253-.337.383-.008.009-.011.01-.02.016-.624.695-1.498.702-2.42.485-.923-.22-1.422-.34-1.629.295-.207.631-.068.202-.401 1.226a.252.252 0 00-.01.028c-.335 1.023-.196.595-.4 1.224-.208.638.265.834 1.14 1.203.866.365 1.558.884 1.66 1.793.008.173.022.346.04.517 0 .014-.006.021-.004.036.051.932-.562 1.555-1.37 2.053s-1.247.766-.943 1.362l.583 1.15c.005.01.008.017.014.026.485.962.281.558.582 1.149.303.599.777.402 1.657.045.875-.355 1.735-.48 2.455.1.126.116.251.231.387.34.008.008.009.014.017.022.691.624.7 1.498.482 2.418-.218.925-.34 1.422.294 1.63.632.205.203.066 1.227.403.008.002.011.005.02.007.002.001.005 0 .009.002 1.022.335.594.193 1.225.4.636.206.83-.267 1.202-1.14.365-.868.886-1.565 1.8-1.664.168-.007.336-.019.502-.038.019.001.026.008.044.006.93-.048 1.554.564 2.052 1.37.5.806.765 1.246 1.361.945.59-.302.191-.098 1.152-.585a.055.055 0 00.015-.008.068.068 0 00.01-.006c.96-.486.558-.286 1.151-.583.597-.303.401-.777.044-1.657-.358-.878-.483-1.744.11-2.463.112-.124.223-.247.327-.375.008-.01.014-.01.026-.021.623-.69 1.496-.7 2.42-.482.923.217 1.42.34 1.629-.295.206-.631.065-.2.403-1.224l.005-.018.003-.011.4-1.227c.207-.636-.265-.832-1.14-1.203-.87-.366-1.569-.887-1.664-1.808a8.836 8.836 0 00-.036-.493c0-.018.006-.027.005-.047-.048-.93.563-1.552 1.37-2.05.805-.5 1.245-.766.945-1.363-.3-.59-.099-.189-.583-1.151a.204.204 0 01-.01-.016l-.006-.01c-.487-.96-.284-.557-.583-1.152-.303-.595-.777-.4-1.657-.042-.878.358-1.746.482-2.462-.11h-.003a8.385 8.385 0 00-.373-.327c-.009-.008-.01-.016-.02-.025-.694-.622-.702-1.497-.483-2.42.218-.923.338-1.42-.295-1.629l-1.226-.403-.026-.007-.003-.001c-1.024-.336-.596-.193-1.227-.4-.636-.209-.832.265-1.203 1.14-.365.869-.887 1.567-1.807 1.664-.165.006-.33.019-.497.038-.017-.001-.024-.008-.043-.006-.932.05-1.556-.56-2.054-1.37-.498-.808-.765-1.244-1.362-.943-.599.305-.176.09-1.178.597-.954.49-.551.287-1.145.586l.001.001zm10.826 8.27a4.629 4.629 0 11-8.257 4.187 4.629 4.629 0 018.257-4.187z"
      clip-rule="evenodd" />
    <animateTransform attributeType="xml" attributeName="transform" type="rotate" from="0 29 26" to="360 29 26" dur="8s"
      additive="sum" repeatCount="indefinite" />
  </g>
</svg>