<?xml version="1.0" encoding="UTF-8"?>
<svg width="36px" height="36px" viewBox="0 0 36 36" version="1.1" xmlns="http://www.w3.org/2000/svg" xmlns:xlink="http://www.w3.org/1999/xlink">
    <title>icon_gsuite</title>
    <g id="Library" stroke="none" stroke-width="1" fill="none" fill-rule="evenodd">
        <g id="Iconography" transform="translate(-679.000000, -363.000000)">
            <g id="icon_gsuite" transform="translate(679.000000, 363.000000)">
                <rect id="Rectangle-Copy" x="0" y="0" width="36" height="36"></rect>
                <g id="gsuite" fill="#6A6868">
                    <g id="Google__G__Logo" transform="translate(6.000000, 4.500000)">
                        <path d="M25.3740659,13.2638242 C25.3740659,12.3855824 25.3028571,11.5025934 25.1509451,10.6385934 L12.9647473,10.6385934 L12.9647473,15.6137143 L19.9432088,15.6137143 C19.6536264,17.2182857 18.7231648,18.6377143 17.3607033,19.5396923 L17.3607033,22.7678242 L21.524044,22.7678242 C23.9688791,20.5176264 25.3740659,17.1945495 25.3740659,13.2638242 Z" id="Path" fill-rule="nonzero"></path>
                        <path d="M12.9647473,25.8867692 C16.4492308,25.8867692 19.3877802,24.7426813 21.5287912,22.7678242 L17.3654505,19.5396923 C16.2071209,20.3277363 14.7117363,20.773978 12.9694945,20.773978 C9.59894505,20.773978 6.7410989,18.500044 5.71569231,15.4428132 L1.41942857,15.4428132 L1.41942857,18.7706374 C3.61265934,23.1333626 8.07982418,25.8867692 12.9647473,25.8867692 Z" id="Path" fill-rule="nonzero"></path>
                        <path d="M5.71094505,15.4428132 C5.16975824,13.8382418 5.16975824,12.1007473 5.71094505,10.4961758 L5.71094505,7.16835165 L1.41942857,7.16835165 C-0.413010989,10.818989 -0.413010989,15.12 1.41942857,18.7706374 L5.71094505,15.4428132 Z" id="Path" fill-rule="nonzero"></path>
                        <path d="M12.9647473,5.16026374 C14.8066813,5.13178022 16.5869011,5.82487912 17.9208791,7.09714286 L17.9208791,7.09714286 L21.6094945,3.40852747 C19.2738462,1.2152967 16.1738901,0.00949450549 12.9647473,0.0474725275 C8.07982418,0.0474725275 3.61265934,2.80087912 1.41942857,7.16835165 L5.71094505,10.4961758 C6.7316044,7.4341978 9.5941978,5.16026374 12.9647473,5.16026374 Z" id="Path" fill-rule="nonzero"></path>
                    </g>
                </g>
            </g>
        </g>
    </g>
</svg>