<?xml version="1.0" encoding="UTF-8"?>
<svg width="108px" height="138px" viewBox="0 0 108 138" version="1.1" xmlns="http://www.w3.org/2000/svg"
    xmlns:xlink="http://www.w3.org/1999/xlink">
    <g id="Login" stroke="none" stroke-width="1" fill="none" fill-rule="evenodd">
        <g id="runpanther---login-oss" transform="translate(-156.000000, -172.000000)">
            <g id="Group-2" transform="translate(66.000000, 172.000000)">
                <g id="Group-3" transform="translate(90.000000, 0.000000)">
                    <text id="COMMUNITY" font-family="Helvetica" font-size="10" font-weight="normal" line-spacing="16"
                        letter-spacing="2.5" fill="#11A5F3">
                        <tspan x="12.4199219" y="132">COMMUNITY</tspan>
                    </text>
                    <g id="Group">
                        <g transform="translate(18.000000, 0.000000)" id="logo-panther-emblem">
                            <g id="Group-7" transform="translate(0.000000, 1.673190)">
                                <polygon id="Fill-1" fill="#0784C6"
                                    points="36 65.183953 47.5714286 62.6125245 54.6161889 48.0992431 67.6543002 38.7929784 65.4667791 21.3463637 72 9.89823875 70.7142857 3.46966732 65.5714286 0.898238748 56.5714286 7.32681018 36 0.898238748">
                                </polygon>
                                <polygon id="Fill-2" fill="#20A5D9"
                                    points="15.7016217 6.17744296 6.42857143 0.898238748 1.28571429 3.46966732 1.28571429 9.89823875 6.5323927 21.3463637 5.14285714 38.183953 18 47.183953 24.4285714 62.6125245 36 63.8982387 36 0.898238748">
                                </polygon>
                                <path
                                    d="M36,65.183953 L36,63.7231851 L45.6602931,62.2810319 C46.0157349,62.2271471 46.3523649,62.1076208 46.6592924,61.9234328 C47.1523564,61.6295157 47.5315603,61.1954981 47.7573005,60.6713459 L53.2750635,47.8016962 C53.4443686,47.4068676 53.7186231,47.0639643 54.0691144,46.8121753 L54.0819856,46.8023781 L66.1541342,38.4933419 C66.3561122,38.3542211 66.4640319,38.117128 66.4343292,37.8741565 L64.2561346,22.0153699 C64.1848482,21.501015 64.2798967,20.9876398 64.5303891,20.5301089 L70.4808207,9.70024377 C70.5125036,9.64244008 70.5273549,9.57679859 70.5233945,9.51115711 L70.2115167,4.44010754 C70.2065662,4.36172965 70.1808239,4.28531121 70.13726,4.21966972 L69.9996377,4.01098859 C69.9531036,3.94142821 69.8887478,3.88558396 69.8115209,3.84933419 L66.0006705,2.0760344 C65.7333466,1.95160949 65.424439,1.97022424 65.1739466,2.12502058 L57.1463093,7.07360469 C56.5799787,7.42336603 55.8879069,7.51350061 55.2492999,7.32049505 L36,1.52249054 L36,0 L55.6789982,5.92340914 C55.9106789,5.99296951 56.1601812,5.96063863 56.3661196,5.83425428 L64.3927668,0.885670172 C65.0709774,0.467328177 65.906612,0.418341995 66.6293766,0.754387204 L70.4402271,2.52768699 C70.763986,2.67856444 71.0392306,2.91467783 71.2342781,3.2115341 L71.3728904,3.42021523 C71.5570469,3.69845675 71.6639764,4.02078582 71.6847683,4.35095269 L71.9966462,9.42200226 C72.017438,9.76196636 71.9412012,10.0989913 71.7778366,10.397807 L65.827405,21.2286519 C65.727406,21.4099007 65.6897827,21.6136833 65.7184952,21.8184455 L67.89867,37.6909482 C67.9937185,38.4825649 67.6471876,39.2438102 66.9966994,39.6915439 L54.9334616,47.9956815 C54.8007898,48.0926741 54.6978206,48.2219976 54.6334648,48.3718953 L49.1157018,61.2415451 C48.7681808,62.0507968 48.1830385,62.7189684 47.4226506,63.1735601 C46.9474081,63.45768 46.4286018,63.6428477 45.8800928,63.7251445 L36,65.183953 Z"
                                    id="Fill-3" fill="#2572B5"></path>
                                <path
                                    d="M36,65.183953 L26.1199158,63.7251445 C25.5714072,63.6428477 25.0526013,63.45768 24.5773593,63.1735601 C23.816972,62.7189684 23.2318302,62.0507968 22.8833194,61.2415451 L17.3665512,48.3718953 C17.3021955,48.2219976 17.1992264,48.0926741 17.0665547,47.9956815 L5.00332726,39.6925236 C4.3528397,39.2438102 4.00630904,38.4825649 4.09937727,37.7027049 L6.28153036,21.8184455 C6.3102429,21.6136833 6.27261957,21.4099007 6.17262072,21.2286519 L0.222194199,10.3987867 C0.0578396557,10.0989913 -0.0174070025,9.76196636 0.00338483723,9.42200226 L0.315262434,4.35095269 C0.336054274,4.0198061 0.443973823,3.69845675 0.62714003,3.42021523 L0.765752295,3.2115341 C0.960799554,2.91467783 1.23604391,2.67856444 1.56079264,2.52768699 L5.37064976,0.754387204 C6.09341371,0.418341995 6.92904765,0.467328177 7.60626758,0.885670172 L15.6338979,5.83425428 C15.8398361,5.96063863 16.0903283,5.99296951 16.3210187,5.92340914 L36,0 L36,1.52249054 L16.7507167,7.32049505 C16.1121102,7.51350061 15.420039,7.42336603 14.8537089,7.07360469 L6.82607854,2.12502058 C6.57558638,1.97022424 6.26568896,1.95258922 5.9983653,2.0760344 L2.18850819,3.84933419 C2.11128135,3.88558396 2.04692566,3.94142821 2.00039154,4.01098859 L1.86276936,4.21966972 C1.81920551,4.28531121 1.79346323,4.36172965 1.78851279,4.44010754 L1.4766352,9.51115711 C1.47267485,9.57679859 1.48752616,9.64244008 1.51920897,9.70024377 L7.46963549,20.5301089 C7.72012765,20.9876398 7.81517606,21.501015 7.74388976,22.0153699 L5.56371684,37.8868929 C5.53599439,38.117128 5.64391394,38.3542211 5.84589181,38.4933419 L17.9309012,46.8121753 C18.2813922,47.0639643 18.5556464,47.4058878 18.7249514,47.8016962 L24.2427097,60.6713459 C24.4684496,61.1954981 24.8476532,61.6295157 25.3407168,61.9234328 C25.647644,62.1076208 25.9842738,62.2271471 26.3397152,62.2810319 L36,63.7231851 L36,65.183953 Z"
                                    id="Fill-5" fill="#3A92CD"></path>
                            </g>
                        </g>
                        <g id="Group-253" transform="translate(0.000000, 83.000000)" fill="#FEFEFE">
                            <g id="Group-6" transform="translate(0.037843, 0.329169)">
                                <path
                                    d="M9.79856725,6.27440862 C12.0609731,6.27440862 13.9834913,7.1296246 15.5661218,8.84005657 C17.1487524,10.5500305 17.9402967,12.7432678 17.9402967,15.4202267 C17.9402967,18.001449 17.1024873,19.7141713 15.4671788,21.4507132 C13.8309541,23.1872551 11.8924035,24.0552971 9.6515269,24.0552971 C8.65293513,24.0552971 7.60762025,23.9371151 6.74415902,23.6366214 C5.92192405,23.3512441 5.29665902,23.0589956 4.48358544,22.3796784 C4.41762342,22.32471 4.31776424,22.3718912 4.31776424,22.4570922 L4.31776424,30.3161926 C4.31776424,30.3606254 4.28203481,30.3968129 4.23714399,30.3968129 L0.704053006,30.3968129 C0.315151899,30.3968129 -1.59872116e-13,30.081661 -1.59872116e-13,29.6927599 L-1.59872116e-13,7.42462144 C-1.59872116e-13,7.03572033 0.315151899,6.7210265 0.704053006,6.7210265 L4.23714399,6.7210265 C4.28203481,6.7210265 4.31776424,6.75675593 4.31776424,6.80073062 L4.31776424,8.39298062 C4.31776424,8.48230419 4.42449446,8.52673695 4.48954035,8.46489755 C5.22703244,7.76221875 6.01949288,7.22856764 6.86692168,6.86394422 C7.7803125,6.47137856 8.75783307,6.27440862 9.79856725,6.27440862 Z M101.456237,6.49309106 C101.500212,6.49309106 101.536399,6.52882049 101.536399,6.57371131 L101.526322,8.07251511 C101.526322,8.14259976 101.606026,8.17237429 101.658246,8.12656733 C102.254194,7.59749691 102.698064,7.32586163 103.13323,7.12247872 C103.578015,6.91497318 104.022801,6.72304201 104.941689,6.55905309 C105.154691,6.52057524 105.447856,6.50774929 105.745143,6.49950403 L106.741444,6.49538141 C106.875201,6.49950403 106.879323,6.50316859 106.879323,6.64791859 L106.873826,9.81088932 C106.869704,9.98083315 106.772593,10.1608545 106.655785,10.2849914 C106.538519,10.4109605 106.296201,10.4476061 106.157864,10.44669 C105.281576,10.4398189 104.970089,10.4737161 104.330624,10.6592343 C103.627029,10.8626172 103.091545,11.151201 102.539114,11.9651907 C102.001798,12.7571931 102.109444,13.6435578 102.109444,16.0974368 L102.125477,16.9531108 L102.125477,23.97486 C102.125477,24.0192928 102.090205,24.0554803 102.045773,24.0554803 L98.5117654,24.0554803 C98.1228643,24.0554803 97.8077124,23.7362058 97.8077124,23.3422659 L97.8077124,7.20630546 C97.8077124,6.81190752 98.1228643,6.49309106 98.5117654,6.49309106 L101.456237,6.49309106 Z M88.0877499,5.82838623 C91.174223,5.82838623 94.3197871,7.20488544 95.8529461,9.98811646 C96.187795,10.5959748 96.4365268,11.2496402 96.6101352,11.9211703 C96.9092547,13.0787122 96.9811716,14.2706093 96.9793732,15.4606742 C96.9788812,15.8688142 96.6504453,16.2009147 96.2423053,16.2009147 L83.4209366,16.2009147 C83.3700909,16.2009147 83.331155,16.2471797 83.3403164,16.2966513 C83.5537768,17.4839677 84.0874279,18.4321718 84.9408116,19.1403475 C85.8170988,19.867762 86.9347887,20.2314693 88.2947974,20.2314693 C89.8971249,20.2314693 91.2837017,19.6149076 92.035852,18.8911576 C92.2712998,18.6644131 92.2712998,18.5833348 92.47056,18.6735745 L94.990401,19.8567684 C95.4324382,20.0638158 95.5519944,20.6345706 95.2354683,21.006065 C94.450795,21.9244946 93.5529786,22.6303799 92.5411028,23.1237209 C91.266295,23.7448633 90.0789786,24.0554345 88.3264042,24.0554345 C85.6073029,24.0554345 83.3925363,23.1979282 81.6825624,21.4824574 C79.9721305,19.7669867 79.1173725,17.6186402 79.1173725,15.0374179 C79.1173725,12.3925239 79.9698401,10.1965381 81.6747752,8.4494606 C83.3792523,6.701925 85.5170632,5.82838623 88.0877499,5.82838623 Z M67.1703214,0.0291332278 C67.214296,0.0291332278 67.2500255,0.0644045886 67.2500255,0.108837342 L67.2500255,7.65232785 C67.2500255,7.71920601 67.3283554,7.7540193 67.3792011,7.71096076 C69.4350176,5.96800585 72.7560223,5.63819573 75.07019,6.97804937 C75.5406275,7.25060079 75.9954907,7.56895918 76.3756884,7.95740222 C77.3848158,8.98760079 78.2913356,10.6032123 78.2913356,12.5994797 L78.2913356,23.3512899 C78.2913356,23.7406491 77.9761837,24.0553429 77.5877407,24.0553429 L74.0853403,24.0553429 C74.0413657,24.0553429 74.0056362,24.0196134 74.0056362,23.9756388 L74.0056362,16.4555098 C74.0056362,15.2416253 74.0198364,13.9805597 73.8095824,12.7817915 C73.7161362,12.2495146 73.537031,11.719528 73.1989756,11.2976459 C72.8705397,10.8872155 72.4046829,10.5990897 71.9067612,10.4305201 C71.1459076,10.1726269 70.2879432,10.1886593 69.5531995,10.5134307 C68.9119021,10.7969758 68.3809994,11.304975 68.0195824,11.9068785 C67.39844,12.9407416 67.3136972,14.1756973 67.2747612,15.3520201 C67.2555223,15.9323943 67.2500255,16.5123104 67.2500255,17.0926847 L67.2500255,23.9756388 C67.2500255,24.0196134 67.214296,24.0553429 67.1703214,24.0553429 L63.6363142,24.0553429 C63.2474131,24.0553429 62.9322612,23.7406491 62.9322612,23.3512899 L62.9322612,0.732728165 C62.9322612,0.343827057 63.2474131,0.0291332278 63.6363142,0.0291332278 L67.1703214,0.0291332278 Z M49.9534998,6.97814098 C50.4239373,7.25023434 50.8788005,7.56905079 51.2589983,7.95703576 C52.2681256,8.98723434 53.1746454,10.603304 53.1746454,12.5995714 L53.1746454,23.3513815 C53.1746454,23.7402826 52.8594935,24.0554345 52.4705924,24.0554345 L48.9567403,24.0554345 C48.9191786,24.0554345 48.888946,24.0252019 48.888946,23.9880983 L48.888946,16.4556014 C48.888946,15.2417169 48.9031462,13.9806513 48.6924342,12.7818831 C48.599446,12.2496062 48.4203408,11.7191616 48.0822854,11.2972794 C47.7538495,10.8873071 47.2879927,10.5991813 46.790071,10.4306117 C46.0292174,10.1722604 45.171253,10.1887509 44.4365093,10.5135223 C43.7947538,10.7970674 43.2638511,11.3050666 42.9028922,11.9069701 C42.2817498,12.9403752 42.197007,14.1757889 42.157613,15.3521117 C42.1383741,15.9324859 42.1333353,16.5124021 42.1333353,17.0927763 L42.1333353,23.9880983 C42.1333353,24.0252019 42.1031027,24.0554345 42.065541,24.0554345 L38.5196241,24.0554345 C38.1307229,24.0554345 37.815571,23.7402826 37.815571,23.3513815 L37.815571,6.93279209 C37.815571,6.54343291 38.1307229,6.22873908 38.5196241,6.22873908 L42.065541,6.22873908 C42.1031027,6.22873908 42.1333353,6.25897168 42.1333353,6.29653339 L42.1333353,7.67807136 C42.1333353,7.73487199 42.1997554,7.76510459 42.2428139,7.72754288 C44.2967981,5.97038782 47.632003,5.63416472 49.9534998,6.97814098 Z M26.8813576,6.22905973 C27.9211756,6.22905973 28.232663,6.2597504 29.2124739,6.42282318 C30.0369992,6.56024407 31.2600451,6.96975831 31.9760079,7.69763093 C32.0254794,7.74756052 32.1093062,7.71274723 32.1093062,7.64312065 L32.1093062,6.33991258 C32.1404549,6.30922191 32.1583196,6.2913572 32.1890103,6.26066653 L35.7550823,6.26066653 C36.1439834,6.26066653 36.4591353,6.57536036 36.4591353,6.96471954 L36.4591353,23.3512441 C36.4591353,23.7406032 36.1439834,24.0552971 35.7550823,24.0552971 L32.1890103,24.0552971 C32.1450356,24.0552971 32.1093062,24.0195676 32.1093062,23.975593 L32.1093062,22.4053303 C32.1093062,22.3361618 32.0268536,22.2995162 31.9769241,22.3466974 C31.1734699,23.1029703 30.331996,23.3631539 29.7378797,23.6109695 C28.7301266,23.936199 27.7159604,24.0552971 26.7187429,24.0552971 C24.4801566,24.0552971 22.5438964,23.1872551 20.909962,21.4507132 C19.2764858,19.7141713 18.5188386,18.0009909 18.5188386,15.4202267 C18.5188386,12.7432678 19.3090087,10.5500305 20.889807,8.8395985 C22.4710633,7.1296246 24.6212421,6.22905973 26.8813576,6.22905973 Z M59.6419472,3.8191672e-13 C59.6469859,3.8191672e-13 59.6511085,0.00412262658 59.6511085,0.00916139241 L59.6511085,0.00916139241 L59.6511085,6.4729818 L62.2231695,6.4729818 C62.2282082,6.4729818 62.2323309,6.47710443 62.2323309,6.4821432 L62.2323309,6.4821432 L62.2323309,9.5535 C62.2323309,9.9469818 61.9167209,10.2662563 61.5278198,10.2662563 L61.5278198,10.2662563 L59.6511085,10.2662563 L59.6511085,24.0358291 L56.3438459,24.0358291 C55.7680524,24.0358291 55.3012794,23.5631013 55.3012794,22.9795206 L55.3012794,22.9795206 L55.3012794,10.2264043 L53.3201283,10.2264043 C53.2976829,10.2264043 53.2789021,10.2076234 53.2789021,10.1847199 L53.2789021,10.1847199 L53.2789021,7.27277136 C53.2789021,6.85592801 53.6128348,6.51787263 54.0241813,6.51787263 L54.0241813,6.51787263 L55.3012794,6.51787263 L55.3012794,0.746653481 C55.3012794,0.334390823 55.6310896,3.8191672e-13 56.0378554,3.8191672e-13 L56.0378554,3.8191672e-13 Z M9.38859494,10.2619047 C8.0185087,10.2619047 6.67819699,10.7282195 5.74281883,11.5747322 C4.77904035,12.4473548 4.12674921,13.8481317 4.12674921,15.3560969 C4.12674921,16.896127 4.71811709,18.2547615 5.67594066,19.1502876 C6.4670269,19.8905281 7.6401432,20.3160748 8.71248418,20.4498311 C10.250682,20.6417623 11.8099509,20.093911 12.8392334,18.9349949 C13.6829976,17.9845004 14.1044217,16.7880225 14.1044217,15.3446452 C14.1044217,13.8577512 13.6587199,12.6383699 12.7664003,11.6878754 C11.8740807,10.7373809 10.7481456,10.2619047 9.38859494,10.2619047 Z M27.3211044,9.95545609 C25.976212,9.95545609 24.6226163,10.4359711 23.7330451,11.3864656 C22.843932,12.33696 22.2896677,13.8481317 22.2896677,15.3350257 C22.2896677,16.7788612 22.613981,17.9611388 23.7706068,19.1173066 C24.8543995,20.2015574 26.3660293,20.6000779 27.9014786,20.4063145 C28.9683228,20.2721001 30.0676899,19.7448619 30.8138853,18.9560661 C31.713534,18.0055716 32.1775585,16.8695589 32.2389399,15.336858 C32.2994051,13.8298089 31.8559937,12.4299482 30.956803,11.4950281 C30.0566962,10.5605661 28.6971456,9.95545609 27.3211044,9.95545609 Z M88.3025846,9.50897563 C87.0896162,9.50897563 86.0255205,9.84886329 85.1107555,10.5286386 C84.5560331,10.9386109 83.9816138,11.5927343 83.5661447,12.6655334 C83.5459896,12.7177533 83.5849256,12.775012 83.6412681,12.775012 L92.5740838,12.775012 C92.6496653,12.775012 92.6927238,12.7150049 92.6716526,12.6426299 C92.6473749,12.557887 92.6409619,12.505209 92.6189746,12.4287114 C92.0683749,10.5222256 90.1980767,9.50897563 88.3025846,9.50897563 Z"
                                    id="Combined-Shape"></path>
                            </g>
                        </g>
                    </g>
                </g>
            </g>
        </g>
    </g>
</svg>