<?xml version="1.0" encoding="UTF-8"?>
<svg width="94px" height="20px" viewBox="0 0 94 20" version="1.1" xmlns="http://www.w3.org/2000/svg" xmlns:xlink="http://www.w3.org/1999/xlink">
    <title>panther_logo</title>
    <g id="General" stroke="none" stroke-width="1" fill="none" fill-rule="evenodd">
        <g id="runpanther---settings---general---OS" transform="translate(-400.000000, -907.000000)">
            <g id="Panther-Plan-Information" transform="translate(260.000000, 883.000000)">
                <g id="panther_logo" transform="translate(140.000000, 24.000000)">
                    <g id="Group-253" transform="translate(24.352332, 0.000000)" fill="#FEFEFE">
                        <g id="Group-6" transform="translate(0.024575, 0.208996)">
                            <path d="M63.9730981,4.1225975 L65.8852247,4.1225975 C65.9137816,4.1225975 65.9372816,4.14528285 65.9372816,4.17378496 L65.9307373,5.12540642 C65.9307373,5.16990461 65.9824968,5.18880907 66.0164082,5.15972529 C66.4034146,4.82380756 66.6916614,4.65134072 66.9742563,4.52220871 C67.2630981,4.39045916 67.5519399,4.2685981 68.1486614,4.16447815 C68.2869842,4.14004777 68.4773639,4.13190431 68.6704209,4.12666923 L69.3174146,4.12405169 C69.4042753,4.12666923 69.4069525,4.12899593 69.4069525,4.22090069 L69.4033829,6.22913608 C69.4007057,6.33703692 69.3376424,6.4513362 69.261788,6.53015325 C69.1856361,6.61013366 69.0282753,6.63340069 68.9384399,6.63281902 C68.3693829,6.62845645 68.1671044,6.64997845 67.7518386,6.76776778 C67.2949272,6.89689979 66.9471867,7.08012764 66.5884399,7.5969465 C66.2395095,8.09980515 66.3094146,8.6625764 66.3094146,10.2205948 L66.3198259,10.7638799 L66.3198259,15.2221334 C66.3198259,15.2503446 66.2969209,15.2733208 66.2680665,15.2733208 L63.9730981,15.2733208 C63.7205475,15.2733208 63.5158892,15.0706068 63.5158892,14.8204863 L63.5158892,4.57543204 C63.5158892,4.32502064 63.7205475,4.1225975 63.9730981,4.1225975" id="Fill-237"></path>
                            <path d="M60.1171943,8.11111875 C60.1662766,8.11111875 60.1942386,8.07301899 60.1805551,8.02706661 C60.1647892,7.9732616 60.1606247,7.93981525 60.1463462,7.89124533 C59.7887892,6.68077818 58.5742259,6.03744485 57.3433019,6.03744485 C56.5556057,6.03744485 55.8645867,6.25324653 55.2705424,6.68484991 C54.9103082,6.94514979 54.5372829,7.36046624 54.2674791,8.0416085 C54.2543905,8.07476401 54.2796753,8.11111875 54.3162639,8.11111875 L56.7861437,8.11111875 L60.0440171,8.11111875 L60.1171943,8.11111875 Z M62.4993209,10.2862951 L54.1731816,10.2862951 C54.1401627,10.2862951 54.1148778,10.3156697 54.1208272,10.3470802 C54.2594475,11.1009319 54.6059981,11.7029662 55.1601816,12.1526016 C55.7292386,12.6144521 56.4550614,12.8453773 57.3382449,12.8453773 C58.3787892,12.8453773 59.2792259,12.4539096 59.767669,11.9943858 C59.9205677,11.850421 59.9205677,11.7989427 60.0499665,11.8562378 L61.6863399,12.607472 C61.9733968,12.7389307 62.0510361,13.1013146 61.8454854,13.3371841 C61.3359222,13.920314 60.7528842,14.3684952 60.0957766,14.6817275 C59.2679222,15.0761037 58.4968842,15.2732917 57.3587703,15.2732917 C55.5929981,15.2732917 54.1547386,14.7288433 53.0442892,13.6396555 C51.9335424,12.5504678 51.3784665,11.1864382 51.3784665,9.54756691 C51.3784665,7.86826914 51.9320551,6.47399247 53.0392323,5.36473689 C54.146112,4.25519048 55.5343968,3.70056269 57.2037892,3.70056269 C59.208131,3.70056269 61.2508462,4.57453044 62.2464728,6.34166124 C62.4639222,6.72760307 62.6254475,7.14262869 62.738188,7.56899699 C62.9324348,8.30394424 62.9791373,9.06070434 62.9779695,9.81630108 C62.97765,10.0754376 62.7643652,10.2862951 62.4993209,10.2862951 L62.4993209,10.2862951 Z" id="Fill-239"></path>
                            <path d="M41.3251367,0.0184972875 L43.6201051,0.0184972875 C43.648662,0.0184972875 43.6718646,0.0408918023 43.6718646,0.0691030741 L43.6718646,4.85862086 C43.6718646,4.90108318 43.7227316,4.92318686 43.7557506,4.8958481 C45.0907886,3.78921007 47.2474342,3.57980681 48.7502443,4.43050753 C49.0557443,4.60355606 49.3511304,4.80568837 49.5980291,5.05231887 C50.2533519,5.7064132 50.8420418,6.73219831 50.8420418,7.99966968 L50.8420418,14.8262158 C50.8420418,15.073428 50.6373835,15.2732336 50.3851304,15.2732336 L48.1106873,15.2732336 C48.0821304,15.2732336 48.0589278,15.2505482 48.0589278,15.2226278 L48.0589278,10.4479427 C48.0589278,9.67722242 48.0681494,8.87654581 47.9316114,8.11542315 C47.8709278,7.77746956 47.7546177,7.44097016 47.5350861,7.1731085 C47.3218013,6.91251778 47.0192759,6.72958077 46.6959278,6.62255244 C46.2018329,6.45881073 45.6446747,6.46899005 45.1675354,6.67519409 C44.7510797,6.85522272 44.4063139,7.1777619 44.1716114,7.55992285 C43.7682443,8.21634388 43.7132127,9.00044274 43.6879278,9.74731435 C43.6754342,10.1158059 43.6718646,10.4840066 43.6718646,10.8524982 L43.6718646,15.2226278 C43.6718646,15.2505482 43.648662,15.2732336 43.6201051,15.2732336 L41.3251367,15.2732336 C41.0725861,15.2732336 40.8679278,15.073428 40.8679278,14.8262158 L40.8679278,0.465224231 C40.8679278,0.218302893 41.0725861,0.0184972875 41.3251367,0.0184972875" id="Fill-241"></path>
                            <path d="M40.4074468,4.10982972 L38.737162,4.10982972 L38.737162,0.00581675708 C38.737162,0.00261754069 38.7344848,-3.09979087e-15 38.7312127,-3.09979087e-15 L36.3907316,-3.09979087e-15 C36.1265797,-3.09979087e-15 35.9124025,0.212311634 35.9124025,0.474065702 L35.9124025,4.13833183 L35.0830608,4.13833183 C34.8159342,4.13833183 34.5990797,4.35297016 34.5990797,4.61763261 L34.5990797,6.46648885 C34.5990797,6.48103074 34.6112759,6.49295509 34.6258519,6.49295509 L35.9124025,6.49295509 L35.9124025,14.5901718 C35.9124025,14.9606992 36.2155228,15.2608439 36.5894405,15.2608439 L38.737162,15.2608439 L38.737162,6.51825799 L39.9558899,6.51825799 C40.2084405,6.51825799 40.4133962,6.315544 40.4133962,6.06571429 L40.4133962,4.11564647 C40.4133962,4.11244726 40.410719,4.10982972 40.4074468,4.10982972" id="Fill-243"></path>
                            <path d="M25.0144709,3.95475497 L27.3171734,3.95475497 C27.3415658,3.95475497 27.3611987,3.97395027 27.3611987,3.99779898 L27.3611987,4.87496594 C27.3611987,4.91102984 27.4043316,4.93022514 27.4322937,4.90637643 C28.7661418,3.79072242 30.9320089,3.57724744 32.4395785,4.4305657 C32.7450785,4.60332339 33.0404646,4.80574653 33.2873633,5.0520862 C33.9426861,5.70618053 34.5313759,6.73225648 34.5313759,7.99972785 L34.5313759,14.826274 C34.5313759,15.0731953 34.3267177,15.2732917 34.0741671,15.2732917 L31.7922873,15.2732917 C31.7678949,15.2732917 31.748262,15.2540964 31.748262,15.2305386 L31.748262,10.4480009 C31.748262,9.67728059 31.7574835,8.87660398 31.6206481,8.11548131 C31.560262,7.77752773 31.4439519,7.44073749 31.2244203,7.17287583 C31.0111354,6.91257595 30.7086101,6.72963894 30.385262,6.62261061 C29.8911671,6.45857806 29.3340089,6.46904822 28.8568696,6.67525226 C28.4401165,6.85528089 28.0953506,7.17782007 27.8609456,7.55998101 C27.4575785,8.21611121 27.4025468,9.0005009 27.3769646,9.74737251 C27.3644709,10.1158641 27.3611987,10.4840648 27.3611987,10.8525564 L27.3611987,15.2305386 C27.3611987,15.2540964 27.3415658,15.2732917 27.3171734,15.2732917 L25.0144709,15.2732917 C24.7619203,15.2732917 24.557262,15.0731953 24.557262,14.826274 L24.557262,4.40177275 C24.557262,4.15456058 24.7619203,3.95475497 25.0144709,3.95475497" id="Fill-245"></path>
                            <path d="M17.7422025,6.3209245 C16.8688354,6.3209245 15.9898165,6.62601341 15.4121329,7.22950196 C14.8347468,7.83299051 14.4748101,8.79246459 14.4748101,9.73652426 C14.4748101,10.6532452 14.6854177,11.4038977 15.4365253,12.1379724 C16.1403354,12.8263856 17.121981,13.0794146 18.1190949,12.9563901 C18.8118987,12.8711747 19.5258228,12.5364203 20.0103987,12.0355975 C20.5946266,11.432109 20.895962,10.7108311 20.9358228,9.73768761 C20.9750886,8.78083107 20.6871392,7.89203059 20.1032089,7.29843053 C19.5186835,6.70512131 18.6357975,6.3209245 17.7422025,6.3209245 M20.9033987,3.97502637 L23.2191899,3.97502637 C23.4717405,3.97502637 23.6763987,4.17483198 23.6763987,4.42204415 L23.6763987,14.8261867 C23.6763987,15.0733989 23.4717405,15.2732045 23.2191899,15.2732045 L20.9033987,15.2732045 C20.8748418,15.2732045 20.8516392,15.2505191 20.8516392,15.2225987 L20.8516392,14.2256065 C20.8516392,14.18169 20.7980949,14.158423 20.7656709,14.1883793 C20.2439114,14.6685526 19.697462,14.8337485 19.3116456,14.9910918 C18.6572152,15.1975866 17.9986203,15.2732045 17.3510316,15.2732045 C15.8973038,15.2732045 14.6399051,14.7220668 13.5788354,13.6195005 C12.5180633,12.5169341 12.0260506,11.4292006 12.0260506,9.7906201 C12.0260506,8.09096368 12.5391835,6.69843204 13.5657468,5.61244349 C14.5926076,4.52674578 15.9889241,3.95495856 17.4566329,3.95495856 C18.1318861,3.95495856 18.3341646,3.9744447 18.9704494,4.07798297 C19.5058924,4.16523433 20.3001329,4.42524337 20.7650759,4.88738472 C20.7972025,4.91908605 20.8516392,4.89698237 20.8516392,4.85277502 L20.8516392,4.02534132 C20.8718671,4.00585518 20.8834684,3.99451251 20.9033987,3.97502637" id="Fill-247"></path>
                            <path d="M6.09691139,6.51549503 C5.20718354,6.51549503 4.33679114,6.81156796 3.72936076,7.34903632 C3.10348734,7.90308243 2.67989241,8.79246459 2.67989241,9.7499028 C2.67989241,10.7276997 3.06392405,11.5903247 3.68593038,12.1589127 C4.19965823,12.6289067 4.96147468,12.8990951 5.6578481,12.9840197 C6.65674684,13.1058808 7.66932911,12.7580387 8.33774051,12.022219 C8.88567722,11.4187304 9.1593481,10.6590619 9.1593481,9.74263186 C9.1593481,8.79857218 8.86991139,8.02436181 8.29044304,7.42087327 C7.71097468,6.81738472 6.97979747,6.51549503 6.09691139,6.51549503 M2.80393671,4.3179242 L2.80393671,5.32887658 C2.80393671,5.38558996 2.87324684,5.41380124 2.91548734,5.37453813 C3.39441139,4.92839286 3.90903165,4.58956676 4.4593481,4.35805983 C5.0525,4.10881178 5.68729747,3.98375151 6.36314557,3.98375151 C7.83234177,3.98375151 9.08081646,4.52674578 10.1085696,5.61273433 C11.1363228,6.69843204 11.6503481,8.09096368 11.6503481,9.7906201 C11.6503481,11.4294914 11.1062785,12.5169341 10.0443165,13.6195005 C8.98175949,14.7220668 7.72287342,15.2732045 6.26765823,15.2732045 C5.61917722,15.2732045 4.94035443,15.1981683 4.37962658,15.0073787 C3.84567089,14.8261867 3.43962658,14.6406322 2.91162025,14.2093196 C2.86878481,14.1744191 2.80393671,14.2043754 2.80393671,14.2584712 L2.80393671,19.2483763 C2.80393671,19.2765876 2.78073418,19.2995637 2.75158228,19.2995637 L0.457208861,19.2995637 C0.204658228,19.2995637 -4.22727957e-15,19.0994673 -4.22727957e-15,18.852546 L-4.22727957e-15,16.592445 L-4.22727957e-15,4.71404536 C-4.22727957e-15,4.46712402 0.204658228,4.26731841 0.457208861,4.26731841 L2.75158228,4.26731841 C2.78073418,4.26731841 2.80393671,4.29000377 2.80393671,4.3179242" id="Fill-249"></path>
                        </g>
                    </g>
                    <g id="Group">
                        <polygon id="Fill-1" fill="#0784C6" points="10.9098447 19.8095241 14.4165805 19.0171431 16.541053 14.4576242 20.3295127 11.6292309 19.8397887 6.30105192 21.6015934 2.84400136 21.2931622 0.98058831 19.8397887 0.38563713 17.1440417 1.98095241 10.9098447 0"></polygon>
                        <polygon id="Fill-2" fill="#20A5D9" points="4.85612528 2.07796919 1.97964972 0.315639204 0.485536576 0.973761354 0.293132367 2.84510076 2.06404186 6.48301516 1.55854925 11.7240041 5.45492236 14.5539361 7.57586565 19.0105558 10.9098447 19.8095241 10.9098447 0.181650025"></polygon>
                        <path d="M10.9098447,19.8095241 L10.9098447,19.365594 L13.8374086,18.927321 C13.9451256,18.9109453 14.0471418,18.874621 14.1401565,18.818646 C14.2895802,18.729324 14.4044984,18.5974253 14.4729092,18.4381344 L16.1450742,14.527024 C16.1963823,14.4070349 16.2794955,14.302826 16.3857123,14.2263068 L16.3896129,14.2233294 L20.0480925,11.6981979 C20.1093022,11.6559189 20.1420074,11.5838658 20.133006,11.5100263 L19.4729014,6.69051172 C19.451298,6.53419831 19.4801026,6.37818264 19.5560146,6.23913814 L21.3593003,2.94792206 C21.3689018,2.93035541 21.3734025,2.91040684 21.3722023,2.89045827 L21.2776874,1.34935691 C21.2761871,1.32553772 21.2683859,1.30231402 21.2551838,1.28236545 L21.2134772,1.21894686 C21.1993749,1.19780734 21.1798719,1.18083617 21.1564681,1.16981979 L20.0015852,0.6309107 C19.9205723,0.593097741 19.8269575,0.598754798 19.7510455,0.645797691 L17.31826,2.14968157 C17.1466328,2.25597469 16.9368996,2.28336676 16.743369,2.22471201 L10.9098447,0.462687696 L10.9098447,0 L16.8735896,1.80013501 C16.9438007,1.82127454 17.0194127,1.81144913 17.0818226,1.77304069 L19.514308,0.269156806 C19.7198405,0.142021899 19.9730807,0.127134907 20.1921154,0.229259669 L21.3469983,0.768168761 C21.4451139,0.814020695 21.5285271,0.885775994 21.5876365,0.975991163 L21.6296431,1.03940975 C21.685452,1.12396786 21.7178571,1.22192426 21.7241581,1.32226258 L21.8186731,2.86336394 C21.8249741,2.96667967 21.8018704,3.06910217 21.7523626,3.15991282 L19.9490769,6.45142663 C19.9187721,6.5065085 19.9073702,6.56843839 19.9160716,6.63066601 L20.5767763,11.454349 C20.6055809,11.6949228 20.5005642,11.9262666 20.303433,12.0623337 L16.6476538,14.5859765 C16.6074474,14.6154528 16.5762425,14.6547544 16.5567394,14.7003086 L14.8845745,18.611419 C14.7792578,18.8573521 14.6019297,19.0604107 14.3714932,19.198562 C14.2274704,19.2849065 14.0702454,19.3411794 13.9040191,19.3661895 L10.9098447,19.8095241 Z" id="Fill-3" fill="#2572B5"></path>
                        <path d="M10.9098447,19.8095241 L7.91567292,19.3661895 C7.74944673,19.3411794 7.59222195,19.2849065 7.44819926,19.198562 C7.21776295,19.0604107 7.040435,18.8573521 6.93481836,18.611419 L5.26295492,14.7003086 C5.24345185,14.6547544 5.21224693,14.6154528 5.1720406,14.5859765 L1.51626454,12.0626315 C1.31913348,11.9262666 1.21411693,11.6949228 1.24232137,11.4579219 L1.90362558,6.63066601 C1.91232695,6.56843839 1.90092515,6.5065085 1.87062038,6.45142663 L0.0673362279,3.16021055 C0.0175283795,3.06910217 -0.00527521374,2.96667967 0.00102577913,2.86336394 L0.0955406722,1.32226258 C0.101841665,1.22162652 0.134546819,1.12396786 0.190055565,1.03940975 L0.232062184,0.975991163 C0.291171498,0.885775994 0.374584642,0.814020695 0.47300015,0.768168761 L1.62758208,0.229259669 C1.8466166,0.127134907 2.0998565,0.142021899 2.30508884,0.269156806 L4.73787218,1.77304069 C4.80028202,1.81144913 4.87619398,1.82127454 4.94610499,1.80013501 L10.9098447,0 L10.9098447,0.462687696 L5.07632551,2.22471201 C4.88279502,2.28336676 4.67306197,2.25597469 4.50143493,2.14968157 L2.06865158,0.645797691 C1.99273962,0.598754798 1.89882482,0.593395481 1.81781206,0.6309107 L0.663230125,1.16981979 C0.639826437,1.18083617 0.620323364,1.19780734 0.606221142,1.21894686 L0.56451457,1.28236545 C0.55131249,1.30231402 0.543511261,1.32553772 0.542011024,1.34935691 L0.447496131,2.89045827 C0.446295942,2.91040684 0.450796651,2.93035541 0.460398164,2.94792206 L2.26368231,6.23913814 C2.33959428,6.37818264 2.36839881,6.53419831 2.34679541,6.69051172 L1.6860913,11.513897 C1.67768998,11.5838658 1.71039513,11.6559189 1.77160478,11.6981979 L5.43398187,14.2263068 C5.54019861,14.302826 5.6233117,14.4067372 5.67461979,14.527024 L7.34678328,18.4381344 C7.41519406,18.5974253 7.53011217,18.729324 7.67953571,18.818646 C7.77255037,18.874621 7.87456644,18.9109453 7.98228342,18.927321 L10.9098447,19.365594 L10.9098447,19.8095241 Z" id="Fill-5" fill="#3A92CD"></path>
                    </g>
                </g>
            </g>
        </g>
    </g>
</svg>