<?xml version="1.0" encoding="UTF-8"?>
<svg width="40px" height="40px" viewBox="0 0 40 40" version="1.1" xmlns="http://www.w3.org/2000/svg" xmlns:xlink="http://www.w3.org/1999/xlink">
    <title>60f9f6f8-3e80-4dbd-976c-cc7780c52b19@1.00x</title>
    <g id="Symbols" stroke="none" stroke-width="1" fill="none" fill-rule="evenodd">
        <g id="illu_manually">
            <circle id="Oval-Copy-3" fill="#F6F6F6" cx="20" cy="20.2741703" r="14.2857143"></circle>
            <path d="M20,0 C31.045695,0 40,8.954305 40,20 C40,31.045695 31.045695,40 20,40 C8.954305,40 0,31.045695 0,20 C0,8.954305 8.954305,0 20,0 Z M25.3212069,16.7801529 L23.8411809,16.7801529 C23.5234732,16.7791797 23.260037,17.0228814 23.2343839,17.3386226 L23.2343839,17.3386226 L23.1357172,18.4881203 C22.4874702,18.6400802 21.8668565,18.8966136 21.2995141,19.2458992 L21.2995141,19.2458992 L20.4085533,18.5108031 C20.1668246,18.3055713 19.8076694,18.3213584 19.5846804,18.5463227 L19.5846804,18.5463227 L18.5388062,19.5922118 C18.3148321,19.8152008 18.3000303,20.1733701 18.503287,20.4151092 L18.503287,20.4151092 L19.2462553,21.2991846 C18.8959887,21.8665337 18.6404332,22.4871522 18.4884852,23.1354068 L18.4884852,23.1354068 L17.3389985,23.2340747 C17.0222835,23.2597406 16.7785745,23.5251653 16.7805351,23.8428768 L16.7805351,23.8428768 L16.7805351,25.3209499 C16.7785518,25.6386866 17.0222759,25.9040962 17.3389985,25.9297495 L17.3389985,25.9297495 L18.4884852,26.0284174 C18.6404433,26.6766695 18.8969738,27.297293 19.2462553,27.8646421 L19.2462553,27.8646421 L18.5082125,28.743792 C18.3049558,28.9855234 18.3197551,29.3436978 18.5437317,29.5666894 L18.5437317,29.5666894 L19.5896059,30.6125746 C19.8106222,30.8424746 20.1707524,30.8622072 20.415449,30.6579631 L20.415449,30.6579631 L21.2995141,29.9149873 C21.8668565,30.2652567 22.4874702,30.5208152 23.1357172,30.672765 L23.1357172,30.672765 L23.2343839,31.8222651 C23.2600471,32.1389839 23.5254687,32.3826963 23.8431764,32.380723 L23.8431764,32.380723 L25.3084006,32.380723 C25.6349995,32.3896143 25.9102872,32.1389915 25.9319948,31.8123888 L25.9319948,31.8123888 L26.0306615,30.6628886 C26.6798937,30.5109287 27.2995223,30.2553804 27.8668647,29.9051109 L27.8668647,29.9051109 L28.7509298,30.6480867 C28.8614379,30.7408338 29.0005594,30.792143 29.1456017,30.792143 C29.2245361,30.792143 29.3024853,30.7763559 29.375499,30.7467545 C29.4495003,30.7151804 29.5175809,30.669792 29.5748077,30.6125645 L29.5748077,30.6125645 L30.6128011,29.5745602 C30.8426985,29.3535413 30.8624308,28.9934069 30.658189,28.7487074 L30.658189,28.7487074 L29.9152207,27.864632 C30.2654873,27.2972829 30.5210427,26.6766619 30.6729908,26.0284073 L30.6729908,26.0284073 L31.8224775,25.9297394 C32.1391925,25.904076 32.3829015,25.6386513 32.3809406,25.3209398 L32.3809406,25.3209398 L32.3809406,23.8428667 C32.3819138,23.523185 32.1342493,23.2577679 31.8155565,23.2370477 L31.8155565,23.2370477 L31.8155565,23.23606 L30.6630918,23.1334618 C30.5111336,22.4842246 30.2555883,21.8645862 29.9053217,21.2972371 L29.9053217,21.2972371 L30.64829,20.4131617 C30.8535194,20.1714302 30.8377325,19.8122733 30.6127708,19.5892817 L30.6127708,19.5892817 L29.5718221,18.5384418 C29.3488356,18.3134775 28.9896829,18.2976904 28.7489343,18.5029222 L28.7489343,18.5029222 L27.8648692,19.2458992 C27.2975268,18.8956285 26.6769131,18.6400701 26.0286661,18.4881203 L26.0286661,18.4881203 L25.9299994,17.3386226 C25.9043362,17.0219039 25.6389146,16.7781895 25.3212069,16.7801529 L25.3212069,16.7801529 Z M21.7780585,23.420655 C22.3317358,22.0836803 23.7525042,21.3249163 25.1713528,21.6080983 C26.5901762,21.891255 27.6104151,23.1363869 27.6094282,24.5828858 C27.6082908,25.3850706 27.289598,26.1546962 26.7232406,26.7230304 C25.7010088,27.7462341 24.0977442,27.9041047 22.8949863,27.1009348 C21.6922183,26.2979417 21.2245327,24.7566445 21.7780585,23.420655 Z M24.5813783,23.0347511 C23.9499033,23.0347511 23.3805906,23.4146433 23.138862,23.9987646 C22.8971257,24.5819007 23.0313142,25.2528382 23.4772821,25.6998267 C23.923255,26.1458049 24.595195,26.2800076 25.1783243,26.0382508 C25.7614536,25.7964941 26.1423265,25.2272 26.1423265,24.5957176 C26.1442816,24.1813135 25.9804946,23.7826713 25.6874448,23.4896381 C25.3943898,23.1965798 24.9957775,23.0327985 24.5813783,23.0347511 Z M16.6711974,7.61904822 L16.5683262,7.62674826 L14.7676372,7.91485582 C14.4173731,7.96913805 14.1677434,8.28389417 14.1943841,8.63712019 L14.1943841,8.63712019 L14.3078526,10.1043318 C13.8973938,10.2681383 13.5017368,10.4684244 13.1258071,10.7012848 L13.1258071,10.7012848 L12.0069091,9.75898667 C11.7345918,9.53303214 11.3359769,9.55079701 11.0853596,9.79944196 L11.0853596,9.79944196 L11.084372,9.79944196 L9.80169463,11.0821344 C9.55008972,11.3317468 9.53233011,11.7333444 9.76123982,12.0036946 L9.76123982,12.0036946 L10.6985761,13.1156847 C10.4657134,13.4916189 10.2664047,13.8872805 10.1026152,14.2977441 L10.1026152,14.2977441 L8.63739104,14.1941406 C8.27823329,14.1625664 7.95757026,14.420085 7.91020963,14.7772767 L7.91020963,14.7772767 L7.62707844,16.5680701 C7.57282226,16.9193259 7.79876413,17.253807 8.14509031,17.3337299 L8.14509031,17.3337299 L9.57480034,17.6869559 C9.60341374,18.1280085 9.67149433,18.5651207 9.77706938,18.9933416 L9.77706938,18.9933416 L8.53680186,19.7738034 C8.23191813,19.9573122 8.12141,20.346078 8.28421184,20.6628044 L8.28421184,20.6628044 L9.10709961,22.2770251 C9.26198781,22.6046003 9.64680871,22.7526047 9.98128867,22.6124938 L9.98128867,22.6124938 L9.98030104,22.6124938 L11.3389575,22.0619169 C11.4879351,22.2414853 11.637918,22.4062719 11.7839453,22.5523009 C11.9309527,22.6993101 12.0927745,22.8453442 12.2743236,22.997294 L12.2743236,22.997294 L11.7237531,24.3559664 C11.588567,24.6835542 11.7296637,25.0614586 12.0473715,25.2193292 L12.0473715,25.2193292 L13.6635435,26.0432118 C13.9802661,26.2060079 14.3690097,26.0954985 14.5535191,25.7906188 L14.5535191,25.7906188 L15.326091,24.5503367 L15.326091,23.8428743 C15.3181849,22.7614732 16.1470085,21.8576551 17.2254416,21.7718139 L17.2254416,21.7718139 L17.3862707,21.7570145 C17.4217925,21.6672202 17.4592869,21.5794062 17.4977665,21.4915898 L17.4977665,21.4915898 L17.384298,21.355427 C17.0547438,20.9637058 16.8810882,20.4644305 16.8968751,19.9533338 C15.811521,19.8526755 14.8820655,19.1333918 14.5130567,18.1082179 C14.1430629,17.0821599 14.4006289,15.9356328 15.1731502,15.1660148 C15.9456716,14.3963968 17.0941731,14.1437963 18.1183499,14.5177602 C19.1425266,14.890739 19.857859,15.8231607 19.9535679,16.9095126 L19.9535679,16.9095126 L20.0216485,16.9095126 C20.5110417,16.9104977 20.9836629,17.0841554 21.3576224,17.3998966 L21.3576224,17.3998966 L21.4918108,17.5113937 L21.7572324,17.3998966 L21.7720342,17.2252513 C21.8539239,16.143825 22.7587014,15.3100812 23.8430703,15.316002 L23.8430703,15.316002 L24.5505244,15.316002 L25.7809157,14.5453913 C26.0848118,14.3608974 26.1943348,13.9731167 26.0335057,13.6563903 L26.0335057,13.6563903 L26.0335057,13.6554027 L25.2096328,12.0392117 C25.050779,11.7215104 24.6738641,11.5804119 24.3462801,11.7165747 L24.3462801,11.7165747 L24.3472653,11.7175624 L22.9856535,12.2681393 C22.8366759,12.0885709 22.6896533,11.9237843 22.5406656,11.7777553 C22.3916881,11.6307461 22.2298637,11.4817516 22.0502874,11.3327622 L22.0502874,11.3327622 L22.6008578,9.97113447 C22.736044,9.64256151 22.5949472,9.26564479 22.2772395,9.10678654 L22.2772395,9.10678654 L20.6502062,8.26613183 C20.3334835,8.10333565 19.945725,8.21384508 19.7612156,8.51872481 L19.7612156,8.51872481 L18.9856884,9.76393244 C18.5574726,9.65835615 18.1203655,9.5912624 17.6803032,9.56166103 L17.6803032,9.56166103 L17.6793181,9.56166103 L17.3260962,8.13193423 C17.2422363,7.79350004 16.9136672,7.57445393 16.5683262,7.62674826 Z" id="Combined-Shape" fill="#7268A6"></path>
        </g>
    </g>
</svg>