<?xml version="1.0" encoding="UTF-8"?>
<svg width="75px" height="64px" viewBox="0 0 75 64" version="1.1" xmlns="http://www.w3.org/2000/svg" xmlns:xlink="http://www.w3.org/1999/xlink">
    <title>file illustration</title>
    <g id="Bulk-Upload" stroke="none" stroke-width="1" fill="none" fill-rule="evenodd">
        <g id="Settings---Bulk-Uploader---upload-area" transform="translate(-883.000000, -294.000000)">
            <g id="file-illustration" transform="translate(883.000000, 294.000000)">
                <path d="M43.5466886,61.4622752 C45.1609376,60.9589833 45.1609376,59.885176 44.9689968,58.1559394 L48.849386,58.6981502 L48.117888,63.3029613 L42.1641839,63.3029613 C42.1641839,63.3029613 41.9333242,61.9655671 43.5466886,61.4622752 Z" id="Path" fill="#71D2C1" fill-rule="nonzero"></path>
                <path d="M44.9689968,58.1559394 L48.849386,58.6981502 L48.4902709,60.966944 L44.491356,60.966944 C45.1476698,60.368124 45.11052,59.4438006 44.9689968,58.1559394 Z" id="Path" fill="#3EB7B2" fill-rule="nonzero"></path>
                <path d="M58.1916863,57.4545151 C58.1916863,57.6535321 58.4057401,61.8558866 58.465003,63.0110697 C58.4686269,63.0870828 58.4410019,63.1612705 58.3885446,63.2164008 C58.3360873,63.2715311 58.2633629,63.3028061 58.1872637,63.3029613 L51.1668284,63.3029613 C51.0734957,63.3028027 50.985099,63.2610168 50.9257366,63.188995 C50.8663743,63.1169732 50.8422352,63.0222244 50.8599,62.9305784 C50.9846173,62.2813407 51.4454522,60.9987867 53.1428461,60.8634552 C55.4249077,60.6821286 53.9840246,56.5293072 53.9840246,56.5293072" id="Path" fill="#71D2C1" fill-rule="nonzero"></path>
                <path d="M53.1428461,60.8634552 L58.3553225,60.8634552 C58.2774847,59.3164297 58.1916863,57.5810014 58.1916863,57.4545151 L53.9840246,56.5328452 C53.9840246,56.5328452 55.4249077,60.6821286 53.1428461,60.8634552 Z" id="Path" fill="#3EB7B2" fill-rule="nonzero"></path>
                <path d="M53.9919853,61.0783935 C53.8503411,60.8494316 53.6356297,60.6749202 53.382551,60.5830623 C53.3285953,60.5627184 53.3055978,60.6485168 53.358669,60.6715143 C53.5901278,60.7567767 53.7863276,60.9171623 53.9159166,61.1270421 C53.9459903,61.1748062 54.0229435,61.1270421 53.9919853,61.0819316 L53.9919853,61.0783935 Z" id="Path" fill="#FFD8C5" fill-rule="nonzero"></path>
                <path d="M53.3047133,61.2650272 C53.2197331,61.0777526 53.0832121,60.9185292 52.9111019,60.8059614 C52.8633378,60.7741186 52.8226499,60.8510719 52.8659914,60.8820301 C53.0248471,60.9870332 53.1503695,61.1352662 53.22776,61.3092532 C53.2516421,61.3614399 53.3277108,61.3163294 53.3047133,61.2650272 L53.3047133,61.2650272 Z" id="Path" fill="#FFD8C5" fill-rule="nonzero"></path>
                <path d="M52.6369007,61.4401622 C52.5274566,61.2395295 52.3767232,61.0643773 52.1946407,60.9262561 C52.1495302,60.8917598 52.1061887,60.968713 52.1495302,61.0023248 C52.3177869,61.1328467 52.4569672,61.2970313 52.5581784,61.4843882 C52.584714,61.5348058 52.6616672,61.4905798 52.6342471,61.4401622 L52.6369007,61.4401622 Z" id="Path" fill="#FFD8C5" fill-rule="nonzero"></path>
                <path d="M54.663336,60.7228165 C54.4765581,60.5011391 54.2271185,60.3411154 53.9477593,60.2637506 C53.923334,60.2574 53.8983852,60.2720525 53.8920346,60.2964778 C53.885684,60.3209032 53.9003365,60.345852 53.9247618,60.3522026 C54.1890275,60.4256686 54.4247087,60.5777509 54.6005351,60.788271 C54.6376849,60.8316124 54.6996013,60.7688115 54.663336,60.72547 L54.663336,60.7228165 Z" id="Path" fill="#FFD8C5" fill-rule="nonzero"></path>
                <path d="M58.466772,63.0110697 C58.4703959,63.0870828 58.442771,63.1612705 58.3903136,63.2164008 C58.3378563,63.2715311 58.265132,63.3028061 58.1890327,63.3029613 L51.1668284,63.3029613 C51.0734957,63.3028027 50.985099,63.2610168 50.9257366,63.188995 C50.8663743,63.1169732 50.8422352,63.0222244 50.8599,62.9305784 C50.8687452,62.8881214 50.8784749,62.8430109 50.8890892,62.7952468 L58.4535042,62.7952468 C58.4579268,62.8757382 58.4614649,62.9482688 58.466772,63.0110697 Z" id="Path" fill="#3EB7B2" fill-rule="nonzero"></path>
                <path d="M48.117888,63.3029613 L42.1641839,63.3029613 C42.1429863,63.1336442 42.1507632,62.9619542 42.1871814,62.7952468 L48.2019174,62.7952468 L48.117888,63.3029613 Z" id="Path" fill="#3EB7B2" fill-rule="nonzero"></path>
                <path d="M45.2582348,60.8218827 C45.1340245,60.6397397 44.9607479,60.4965182 44.758481,60.4088119 C44.7062944,60.3866989 44.6611838,60.4627676 44.7133705,60.4848806 C44.9025139,60.5651481 45.0648353,60.6977054 45.1812816,60.8669932 C45.2140088,60.9138728 45.2900776,60.8669932 45.2582348,60.8218827 L45.2582348,60.8218827 Z" id="Path" fill="#FFD8C5" fill-rule="nonzero"></path>
                <path d="M44.7920928,61.2323 C44.7022381,61.0551273 44.5514891,60.9163126 44.3675232,60.8413422 C44.3153365,60.8192292 44.292339,60.9050276 44.3436412,60.9297942 C44.5060364,60.9991506 44.6379485,61.1247812 44.7151396,61.2836022 C44.7407906,61.3340198 44.8168594,61.2897938 44.7920928,61.2384916 L44.7920928,61.2323 Z" id="Path" fill="#FFD8C5" fill-rule="nonzero"></path>
                <path d="M44.3011842,61.4728894 C44.196773,61.3274337 44.0509864,61.2167838 43.8828062,61.1553468 C43.829735,61.1358873 43.8067375,61.2216858 43.8598087,61.2437988 C44.0061518,61.2977077 44.1332612,61.3937323 44.2251155,61.519769 C44.2578427,61.565764 44.334796,61.519769 44.3011842,61.475543 L44.3011842,61.4728894 Z" id="Path" fill="#FFD8C5" fill-rule="nonzero"></path>
                <path d="M43.5634945,61.7276312 C43.4874358,61.6094919 43.3839596,61.5114778 43.2618732,61.4419312 C43.2409111,61.4299861 43.2142432,61.4370456 43.2019367,61.4577977 C43.1896303,61.4785498 43.1962269,61.5053359 43.2167627,61.518 C43.3260056,61.5797305 43.4188286,61.6667901 43.4874258,61.7718572 C43.518384,61.8196213 43.5953372,61.7718572 43.5634945,61.7276312 L43.5634945,61.7276312 Z" id="Path" fill="#FFD8C5" fill-rule="nonzero"></path>
                <polygon id="Path" fill="#192231" points="62.1808715 63.4409464 7.40962404 63.4409464 12.7875056 22.0914055 67.5578686 22.0914055"></polygon>
                <g id="Group-3" transform="translate(34.859744, 26.602137) rotate(13.000000) translate(-34.859744, -26.602137) translate(12.359744, 4.602137)">
                    <polygon id="Path" fill="#30415C" transform="translate(22.098358, 22.007976) rotate(14.000000) translate(-22.098358, -22.007976) " points="3.91141265 10.029502 17.9131629 40.1115106 40.2853041 29.6964267 30.5713222 8.82793498 17.070037 3.90444078"></polygon>
                    <polygon id="Path" fill="#4F627C" transform="translate(27.034685, 9.328778) rotate(14.000000) translate(-27.034685, -9.328778) " points="33.7853277 9.64551414 20.2840425 4.72201994 24.5718108 13.9355368"></polygon>
                </g>
                <g id="Group-2-Copy" transform="translate(22.508717, 8.303771)">
                    <polygon id="Path" fill="#3E516B" transform="translate(25.665040, 26.048244) rotate(40.000000) translate(-25.665040, -26.048244) " points="7.47809398 14.0697707 21.4798442 44.1517793 43.8519855 33.7366954 34.1380035 12.8682037 20.6367184 7.94470945"></polygon>
                    <polygon id="Path" fill="#30415C" transform="translate(35.659975, 16.816200) rotate(40.000000) translate(-35.659975, -16.816200) " points="42.4106176 17.1329363 28.9093324 12.2094421 33.1971007 21.4229589"></polygon>
                </g>
                <g id="Group-2" transform="translate(3.602202, 9.841930)">
                    <polygon id="Path" fill="#4F627C" transform="translate(21.893848, 21.744026) rotate(11.000000) translate(-21.893848, -21.744026) " points="3.70690196 9.76555229 17.7086522 39.8475609 40.0807935 29.432477 30.3668115 8.56398526 16.8655264 3.64049105"></polygon>
                    <polygon id="Path" fill="#3E516B" transform="translate(26.159831, 8.823858) rotate(11.000000) translate(-26.159831, -8.823858) " points="32.910474 9.14059344 19.4091888 4.21709923 23.6969571 13.4306161"></polygon>
                </g>
                <polygon id="Path" fill="#30415C" points="20.9551633 31.0356717 15.7329572 26.5104674 0.01945944 26.5104674 6.47380188 63.4409464 62.4170383 63.4409464 56.743727 31.0356717"></polygon>
            </g>
        </g>
    </g>
</svg>