<?xml version="1.0" encoding="UTF-8"?>
<svg width="95px" height="90px" viewBox="0 0 95 90" version="1.1" xmlns="http://www.w3.org/2000/svg" xmlns:xlink="http://www.w3.org/1999/xlink">
    <title>no results ill</title>
    <g id="Indicator-Search" stroke="none" stroke-width="1" fill="none" fill-rule="evenodd">
        <g id="Runpanther---Data-Analytics---Indicator-Search-st1" transform="translate(-887.000000, -516.000000)">
            <g id="Quickly-search-indicators" transform="translate(400.000000, 94.000000)">
                <g id="no-results-illustration" transform="translate(390.000000, 346.000000)">
                    <g id="search" transform="translate(97.795000, 76.262500)">
                        <g id="documents">
                            <path d="M51.3888014,76.743204 L5.83106525,76.743204 C2.62449042,76.743204 -0.000262082127,74.1270067 -0.000262082127,70.9295774 L-0.000262082127,6.36449386 C-0.000262082127,3.16706458 2.62449042,0.552173467 5.83106525,0.552173467 L51.3888014,0.552173467 C54.5966867,0.552173467 57.2214392,3.16706458 57.2214392,6.36449386 L57.2214392,70.9295774 C57.2214392,74.1270067 54.5966867,76.743204 51.3888014,76.743204" id="Fill-5" fill="#3D506C"></path>
                            <path d="M44.8223897,20.2232025 L11.1724648,20.2232025 C10.2114879,20.2232025 9.4248765,19.47485 9.4248765,18.5606126 C9.4248765,17.645128 10.2114879,16.8967755 11.1724648,16.8967755 L44.8223897,16.8967755 C45.7833666,16.8967755 46.569978,17.645128 46.569978,18.5606126 C46.569978,19.47485 45.7833666,20.2232025 44.8223897,20.2232025" id="Fill-11" fill="#86A3C3"></path>
                            <path d="M44.8223897,30.2024835 L11.1724648,30.2024835 C10.2114879,30.2024835 9.4248765,29.454131 9.4248765,28.5398936 C9.4248765,27.624409 10.2114879,26.8760565 11.1724648,26.8760565 L44.8223897,26.8760565 C45.7833666,26.8760565 46.569978,27.624409 46.569978,28.5398936 C46.569978,29.454131 45.7833666,30.2024835 44.8223897,30.2024835" id="Fill-13" fill="#86A3C3"></path>
                            <path d="M44.8223897,40.1817645 L11.1724648,40.1817645 C10.2114879,40.1817645 9.4248765,39.433412 9.4248765,38.5191746 C9.4248765,37.6049373 10.2114879,36.8553375 11.1724648,36.8553375 L44.8223897,36.8553375 C45.7833666,36.8553375 46.569978,37.6049373 46.569978,38.5191746 C46.569978,39.433412 45.7833666,40.1817645 44.8223897,40.1817645" id="Fill-15" fill="#86A3C3"></path>
                            <path d="M44.8223897,50.1610455 L11.1724648,50.1610455 C10.2114879,50.1610455 9.4248765,49.412693 9.4248765,48.4984556 C9.4248765,47.582971 10.2114879,46.8346185 11.1724648,46.8346185 L44.8223897,46.8346185 C45.7833666,46.8346185 46.569978,47.582971 46.569978,48.4984556 C46.569978,49.412693 45.7833666,50.1610455 44.8223897,50.1610455" id="Fill-17" fill="#86A3C3"></path>
                            <path d="M28.7371818,60.1403265 L11.1799422,60.1403265 C10.2148535,60.1403265 9.4248765,59.391974 9.4248765,58.4777366 C9.4248765,57.562252 10.2148535,56.8138995 11.1799422,56.8138995 L28.7371818,56.8138995 C29.7022705,56.8138995 30.4922475,57.562252 30.4922475,58.4777366 C30.4922475,59.391974 29.7022705,60.1403265 28.7371818,60.1403265" id="Fill-19" fill="#86A3C3"></path>
                        </g>
                        <g transform="translate(16.584750, 12.588750)">
                            <path d="M37.563653,36.9991612 C30.8350118,43.7266547 20.4182454,44.4855961 12.8557549,39.2915028 C11.8892799,38.615791 10.969365,37.8568496 10.1115303,36.9991612 C9.6699147,36.5590316 9.25369554,36.1047953 8.86146189,35.6265776 C8.07699459,34.6715528 7.38988025,33.6530478 6.8269262,32.6006867 C5.83505478,30.8232403 5.16063864,28.9371722 4.79239051,26.9876239 C3.60440226,20.8737725 5.38074098,14.2929889 10.1115303,9.5644172 C14.8536069,4.82173881 21.4355133,3.05698847 27.5504077,4.2334887 C29.4988777,4.6129594 31.3866785,5.28726049 33.1644281,6.26767735 C34.2183797,6.84323142 35.2229494,7.53022855 36.179548,8.31456204 C36.6564364,8.70531811 37.1107502,9.12287695 37.5509548,9.5644172 C38.4102005,10.4221056 39.1805587,11.3404529 39.8436875,12.3081737 C45.0400779,19.8679636 44.2795961,30.2843637 37.563653,36.9991612" id="Fill-21" fill-opacity="0.1" fill="#FFFFFF"></path>
                            <path d="M35.6808267,35.6740161 C28.6805892,42.675562 17.3361403,42.6742594 10.3346001,35.6740161 C3.34217831,28.6815885 3.34217831,17.3358276 10.3437184,10.3355843 C17.3361403,3.34315675 28.6805892,3.34315675 35.673011,10.3355843 C42.6732485,17.3358276 42.6732485,28.6815885 35.6808267,35.6740161 M39.2734309,6.73906933 C30.2880125,-2.24635644 15.7274143,-2.24635644 6.74199593,6.73906933 C-2.24211983,15.7231925 -2.2499355,30.292921 6.73418026,39.2783468 C14.9119791,47.4535471 27.7296823,48.1908262 36.7450608,41.4784605 C37.6256266,40.8219434 38.473627,40.085967 39.2825492,39.2783468 C40.0901687,38.469424 40.8261445,37.6214228 41.4813584,36.7408563 C48.1937186,27.7241678 47.4499271,14.9155723 39.2734309,6.73906933" id="Fill-23" fill="#1D2940"></path>
                            <path d="M74.6350954,73.1490468 L74.2578558,73.5262864 C71.7621715,76.0232539 67.6754082,76.0232539 65.1784408,73.5262864 L42.134742,50.4825876 L51.5913966,41.025933 L74.6350954,64.0696318 C77.1320629,66.5665992 77.1320629,70.6520793 74.6350954,73.1490468" id="Fill-25" fill="#3D506C"></path>
                            <path d="M49.7045636,43.8157656 L44.87025,48.64875 L37.1451015,40.8692769 C38.0436431,40.1993582 38.9076255,39.4483582 39.7343902,38.6242519 C40.5584964,37.8001457 41.3094964,36.9348341 41.9780859,36.0362925 L49.7045636,43.8157656 Z" id="Fill-27" fill="#86A3C3"></path>
                            <path d="M31.046652,7.92722066 L7.37163883,31.6010565 C6.48003684,30.0031011 5.87379822,28.3074929 5.544045,26.5548149 L26.0001594,6.0984495 C27.7516563,6.44086851 29.4486171,7.04580876 31.046652,7.92722066" id="Fill-33" fill-opacity="0.5" fill="#FFFFFF"></path>
                            <path d="M38.808315,13.5542925 L13.2130506,37.699506 C12.2964489,37.0960966 11.4240047,36.4169454 10.6104372,35.6494288 C10.1916104,35.2543092 9.79553147,34.8490908 9.4248765,34.4211498 L35.3319193,9.979281 C35.7855368,10.3302179 36.2164064,10.7038773 36.6338951,11.0989968 C37.4474626,11.8665134 38.1794058,12.6883116 38.808315,13.5542925" id="Fill-35" fill-opacity="0.5" fill="#FFFFFF"></path>
                        </g>
                    </g>
                </g>
            </g>
        </g>
    </g>
</svg>